<svg width="29" height="30" viewBox="0 0 29 30" fill="none" xmlns="http://www.w3.org/2000/svg">
<g clip-path="url(#clip0_1_2)">
<path d="M1.805 1.2942L18.405 0.0682012C20.444 -0.106799 20.968 0.0112012 22.25 0.943201L27.549 4.6762C28.423 5.3182 28.714 5.4932 28.714 6.1922V26.6652C28.714 27.9482 28.248 28.7072 26.617 28.8232L7.34 29.9902C6.116 30.0482 5.533 29.8732 4.892 29.0562L0.99 23.9822C0.29 23.0482 0 22.3492 0 21.5322V3.3342C0 2.2852 0.466 1.4102 1.805 1.2942Z" fill="white"/>
<path fill-rule="evenodd" clip-rule="evenodd" d="M18.405 0.0682012L1.805 1.2942C0.466 1.4102 0 2.2852 0 3.3342V21.5322C0 22.3492 0.29 23.0482 0.99 23.9822L4.892 29.0562C5.533 29.8732 6.116 30.0482 7.34 29.9902L26.617 28.8232C28.247 28.7072 28.714 27.9482 28.714 26.6652V6.1922C28.714 5.5292 28.452 5.3382 27.681 4.7722C27.6366 4.74024 27.5923 4.70824 27.548 4.6762L22.25 0.943201C20.968 0.0112012 20.444 -0.106799 18.405 0.0682012ZM7.776 5.8572C6.202 5.9632 5.845 5.9872 4.951 5.2602L2.678 3.4522C2.447 3.2182 2.563 2.9262 3.145 2.8682L19.103 1.7022C20.443 1.5852 21.141 2.0522 21.665 2.4602L24.402 4.4432C24.519 4.5022 24.81 4.8512 24.46 4.8512L7.98 5.8432L7.776 5.8572ZM5.941 26.4902V9.1102C5.941 8.3512 6.174 8.0012 6.872 7.9422L25.8 6.8342C26.442 6.7762 26.732 7.1842 26.732 7.9422V25.2062C26.732 25.9652 26.615 26.6072 25.567 26.6652L7.454 27.7152C6.406 27.7732 5.941 27.4242 5.941 26.4902ZM23.821 10.0422C23.937 10.5672 23.821 11.0922 23.296 11.1522L22.423 11.3252V24.1572C21.665 24.5652 20.967 24.7982 20.384 24.7982C19.452 24.7982 19.219 24.5062 18.521 23.6322L12.812 14.6502V23.3402L14.618 23.7492C14.618 23.7492 14.618 24.7992 13.161 24.7992L9.144 25.0322C9.027 24.7982 9.144 24.2152 9.551 24.0992L10.6 23.8082V12.3182L9.144 12.2002C9.027 11.6752 9.318 10.9172 10.134 10.8582L14.444 10.5682L17.414 15.1172L20.384 19.6662V11.6172L18.87 11.4432C18.753 10.8002 19.219 10.3332 19.801 10.2762L23.821 10.0422Z" fill="black"/>
<path d="M24 9L8.5 9.5L6.5 12L7 24L10 26.5L18.5 26L23.5 25.5L25.5 19.5V13L24 9Z" fill="white"/>
<path d="M15.8099 24.366C14.9038 24.399 14.0583 24.2631 13.2734 23.9581C12.5018 23.6526 11.8316 23.2034 11.263 22.6104C10.6939 22.004 10.2401 21.2667 9.90158 20.3985C9.5626 19.5169 9.37273 18.5165 9.33196 17.3972C9.28925 16.2247 9.4182 15.1859 9.71879 14.2811C10.0322 13.3624 10.4709 12.5859 11.0349 11.9516C11.6122 11.3168 12.2883 10.8319 13.0633 10.4968C13.8378 10.1484 14.6714 9.95793 15.5641 9.92541C16.4835 9.89192 17.2153 10.0187 17.7594 10.3058C18.3169 10.5923 18.6881 10.8923 18.8729 11.2058L18.9928 11.2015L18.9506 10.0422L21.2691 9.95778L21.4307 14.3948L19.1122 14.4793L19.0802 13.5999C19.055 12.907 18.8216 12.3618 18.3802 11.9643C17.9388 11.5667 17.2384 11.3854 16.279 11.4204C15.0665 11.4645 14.1718 11.8107 13.595 12.4588C13.0311 13.093 12.7729 14.0631 12.8204 15.3689L12.9595 19.1864C13.0037 20.3989 13.297 21.3088 13.8394 21.9161C14.3947 22.5096 15.1521 22.7889 16.1114 22.754C17.0442 22.72 17.7219 22.4618 18.1446 21.9795C18.5668 21.4838 18.7651 20.8828 18.7394 20.1766L18.6709 18.2979L16.6723 18.3707L16.6242 17.0515L22.8401 16.8251L22.8881 18.1443L21.8688 18.1814L22.077 23.8976L20.9777 23.9376L19.6858 21.9834L19.5458 21.9885C19.4875 22.2174 19.3565 22.469 19.1531 22.7433C18.9491 23.0042 18.678 23.2542 18.3398 23.4934C18.0145 23.7187 17.6346 23.9126 17.2003 24.0752C16.7797 24.2507 16.3162 24.3476 15.8099 24.366Z" fill="black"/>
</g>
<defs>
<clipPath id="clip0_1_2">
<rect width="29" height="30.0003" fill="white"/>
</clipPath>
</defs>
</svg>
