<svg width="400" height="374" viewBox="0 0 400 374" fill="none" xmlns="http://www.w3.org/2000/svg">
<path fill-rule="evenodd" clip-rule="evenodd" d="M94.5021 0.673964C93.6182 1.05709 90.6049 2.15657 87.8059 3.11654C64.4482 11.1295 65.8421 10.5972 65.8421 11.5051C65.8421 11.8947 67.6501 13.4647 69.8598 14.9951L73.8776 17.7773V27.5444V37.312L80.44 39.3151C84.0495 40.4167 88.0871 41.6423 89.413 42.0383C90.7388 42.4343 94.6366 43.6272 98.0747 44.6886C101.513 45.7505 104.715 46.6192 105.191 46.6192C105.977 46.6192 106.028 45.0196 105.745 29.3141C105.574 19.7965 105.332 11.3506 105.207 10.5457C105.082 9.74131 103.482 7.02454 101.651 4.509C98.1165 -0.345026 97.5524 -0.647665 94.5021 0.673964ZM101.549 7.34221L103.511 10.1872L103.768 27.6206L104.026 45.0545L102.746 44.5329C102.042 44.2464 98.9951 43.2703 95.9753 42.3646C82.5506 38.3358 79.3868 37.3603 77.6275 36.7057L75.7526 36.0075L75.6068 26.3698L75.4611 16.732L71.9909 14.3748C70.0821 13.0784 68.5206 11.8947 68.5211 11.745C68.5211 11.5952 74.9699 9.26267 82.8512 6.56146L97.1807 1.65056L98.3844 3.07361C99.0465 3.8565 100.47 5.77697 101.549 7.34221ZM38.2534 31.0226C33.6839 32.1908 32.2075 32.7579 28.075 34.9328C17.2512 40.6292 7.86032 49.7889 1.6076 60.7482C-0.420571 64.3026 -0.3595 64.4717 3.56023 66.1716C4.96324 66.7801 8.09978 68.3647 10.5303 69.6927C15.44 72.3757 15.5257 72.5501 14.1093 76.9856C13.1118 80.1107 12.5022 95.6037 13.1825 100.547L13.6255 103.766L15.4935 103.704C16.5205 103.669 20.1333 103.127 23.5216 102.5C26.9099 101.872 30.0925 101.357 30.5945 101.355C31.1602 101.353 31.9048 102.253 32.5535 103.721C33.7985 106.54 34.8265 107.276 40.1284 109.138C44.9609 110.835 47.3711 113.024 46.8343 115.226C46.5075 116.567 44.3315 120.472 36.6233 133.547C30.8795 143.291 25.7549 153.151 23.5151 158.767C22.868 160.39 21.7522 163.143 21.0359 164.883C18.5412 170.945 16.0823 181.909 15.2262 190.784C14.4902 198.416 17.3272 212.231 21.2689 220.207C22.9044 223.517 27.4638 230.163 30.242 233.286C35.9129 239.661 47.7541 246.534 54.9212 247.61C57.7085 248.029 57.7069 248.066 54.6909 252.548C44.332 267.938 36.9522 285.902 34.2271 302.361C32.8583 310.631 32.3296 323.728 33.1492 329.083C34.5345 338.136 38.5041 346.875 44.3036 353.637C47.3121 357.145 52.5159 361.767 55.1328 363.255C56.3151 363.927 54.7595 364.045 41.5121 364.282C30.2179 364.485 26.5017 364.715 26.3335 365.221C26.1588 365.748 29.6597 365.892 42.6644 365.892H59.2176L62.3466 367.495C64.0678 368.377 66.8004 369.595 68.4188 370.201C83.7415 375.944 97.0735 375.204 111.912 367.79L115.93 365.782L168.6 366.167C197.569 366.378 256.208 366.371 298.91 366.151C364.045 365.815 376.549 365.632 376.549 365.016C376.549 364.422 374.699 364.282 366.849 364.282C358.014 364.282 357.18 364.202 357.492 363.387C358.038 361.963 376.014 276.44 376.014 275.268C376.014 274.687 375.635 273.832 375.172 273.368C374.439 272.634 371.915 272.525 355.619 272.525C345.328 272.525 336.907 272.363 336.907 272.166C336.907 271.97 337.955 269.856 339.235 267.471C345.472 255.845 350.286 242.848 353.062 230.134C354.623 222.98 354.764 221.527 354.807 212.076L354.854 201.798L358.871 202.094C361.081 202.257 362.985 202.643 363.102 202.951C363.61 204.289 365.881 205.958 367.951 206.516C375.733 208.616 388.08 207.836 391.544 205.026C392.698 204.09 392.711 203.897 392.659 188.265C392.597 169.871 393.052 171.219 386.393 169.735C383.335 169.054 380.822 168.902 376.1 169.113C366.536 169.539 363.45 170.872 363.587 174.514L363.66 176.475H360.445C358.677 176.475 356.364 176.837 355.307 177.28C354.249 177.722 352.715 178.085 351.898 178.085C351.081 178.085 348.785 178.588 346.794 179.204C344.465 179.925 342.819 180.164 342.175 179.875C341.624 179.628 339.913 176.893 338.371 173.797C336.311 169.661 335.086 167.847 333.748 166.956C331.755 165.628 329.448 165.38 328.443 166.387C327.502 167.33 327.659 169.702 328.759 171.171C331.258 174.505 331.503 176.877 330.154 184.658C329.066 190.934 329.445 194.942 331.554 199.457C333.436 203.483 333.533 205.263 332.101 209.432C327.157 223.826 317.696 236.018 304.698 244.745C303.04 245.858 301.53 246.768 301.342 246.768C301.155 246.768 301.394 245.863 301.874 244.756C303.213 241.666 305.813 234.379 306.324 232.28C306.576 231.247 307.269 228.591 307.865 226.378C313.513 205.392 314.836 173.982 311.211 146.962C309.664 135.434 305.352 121.604 300.336 112.08L297.963 107.575L299.623 106.455C301.407 105.251 302.364 102.961 303.888 96.2541C306.221 85.9874 305.419 84.2945 297.533 82.8403C294.421 82.2662 294.319 82.1937 294.3 80.5668C294.254 76.3626 289.082 75.2406 287.611 79.1158C287.337 79.8354 286.729 80.4246 286.258 80.4246C285.539 80.4246 285.459 79.9765 285.755 77.6037C286.054 75.2014 285.935 74.5639 284.951 73.311C284.06 72.1766 283.337 71.8391 281.798 71.8391C280.7 71.8391 279.528 72.1128 279.195 72.4471C278.742 72.9005 278.258 72.6724 277.297 71.5531C275.688 69.6788 273.164 69.5333 271.38 71.2118C270.271 72.255 270.041 72.2931 269.108 71.5869C268.537 71.1539 267.56 70.7922 266.937 70.7831C265.37 70.7595 262.981 72.7588 262.981 74.0939C262.981 75.1365 262.776 75.1772 259.271 74.8311C255.72 74.4807 255.491 74.529 253.905 75.9693C252.494 77.2501 252.046 78.349 250.888 83.3758C248.974 91.6839 248.82 93.0549 249.594 94.9276C250.26 96.5374 252.494 98.1322 254.083 98.1322C255.708 98.1322 255.448 99.1705 253.604 100.047C249.909 101.804 248.535 105.06 250.672 106.997C251.958 108.163 253.902 108.228 258.963 107.273C263.557 106.406 267.256 107.04 271.383 109.402C274.107 110.962 274.185 111.076 275.462 115.428C278.778 126.719 279.787 135.525 279.015 146.422C278.394 155.18 277.171 161.327 274.437 169.442C266.644 192.561 247.972 212.915 229.231 218.72C221.821 221.015 217.172 221.443 210.317 220.459C203.994 219.552 201.877 218.846 201.355 217.472C200.889 216.245 201.954 204 202.62 202.92C202.838 202.567 203.924 202.633 205.763 203.111C214.169 205.295 223.139 202.918 230.628 196.52C232.133 195.234 233.731 194.182 234.179 194.182C235.842 194.182 238.935 192.5 239.353 191.368C239.951 189.751 239.495 188.38 238.228 187.977C237.45 187.729 237.245 187.326 237.469 186.483C237.638 185.848 238.185 183.729 238.684 181.775L239.593 178.221L243.286 177.878C252.91 176.982 258.163 169.651 256.205 159.847C255.735 157.493 252.123 153.71 250.701 154.082C249.847 154.306 249.508 153.972 249.003 152.406C247.371 147.348 243.095 141.879 239.202 139.868C234.824 137.608 229.886 138.822 228.335 142.541C227.768 143.9 227.346 144.263 226.608 144.029C220.432 142.065 211.685 141.622 205.828 142.976C201.119 144.065 194.338 147.648 191.178 150.718C188.644 153.179 185.988 157.16 184.499 160.731C182.401 165.76 181.396 175.931 182.642 179.512C183.144 180.955 182.838 181.75 179.305 188.178C177.105 192.18 175.079 195.256 174.643 195.256C174.218 195.256 173.472 194.894 172.984 194.452C172.189 193.731 171.883 193.812 169.995 195.242C168.839 196.118 167.694 196.842 167.449 196.85C167.204 196.858 165.6 195.458 163.882 193.738C155.307 185.148 138.652 180.618 110.305 179.164C104.56 178.869 95.4927 178.626 90.1555 178.624C75.512 178.62 72.7119 177.846 67.0233 172.231C62.9048 168.167 59.9552 159.599 60.7331 153.959C61.0647 151.555 63.6457 141.746 65.0449 137.572C67.8654 129.159 70.6634 116.743 70.6634 112.643C70.6634 111.155 70.7941 109.937 70.9543 109.937C71.3978 109.937 76.967 114.131 77.3522 114.755C78.2221 116.164 79.2041 115.06 80.3039 111.433C80.9494 109.305 82.1928 106.094 83.067 104.298C86.8384 96.5497 95.3261 87.2779 101.483 84.1807C103.536 83.1478 105.38 82.0757 105.579 81.7977C105.778 81.5203 105.577 80.5866 105.132 79.7238C104.189 77.8988 95.1964 68.7043 91.2879 65.5695C88.2232 63.1114 78.9089 57.0259 75.8088 55.4564C74.6608 54.8752 71.371 52.2266 68.497 49.5705C63.1577 44.6349 58.3733 40.4833 50.3067 33.7861C45.1457 29.5008 44.6502 29.3871 38.2534 31.0226ZM50.6613 36.3558C53.8547 38.9749 56.9264 41.631 57.4878 42.2583L58.5083 43.3997H48.0219H37.5356L33.8328 45.9549C27.4065 50.3888 21.8314 57.3028 17.9422 65.6602C16.8457 68.0169 15.8439 70.0496 15.7164 70.1773C15.3618 70.5325 2.10848 63.59 2.10045 63.0449C2.07955 61.6197 8.85137 52.6403 13.2982 48.1968C22.163 39.3398 32.3505 33.4496 40.9887 32.187C42.7254 31.9332 44.3058 31.696 44.5008 31.6601C44.6958 31.6241 47.468 33.7372 50.6613 36.3558ZM47.5403 46.3659C61.1697 48.9561 77.7529 57.093 90.5031 67.4465C97.5974 73.2074 103.351 79.1695 103.337 80.7433C103.334 81.0105 101.745 82.0741 99.8051 83.1059C95.61 85.3382 88.2869 92.6584 84.4652 98.4402C82.0492 102.095 78.6989 109.51 78.6989 111.202C78.6989 112.871 77.6093 112.57 74.0769 109.925C72.0841 108.433 67.7186 105.87 64.3759 104.229C60.552 102.352 57.9587 100.728 57.3828 99.8471C56.665 98.7498 56.4678 97.2264 56.47 92.7898C56.4726 87.9025 56.6783 86.5836 57.9801 83.1076C59.8427 78.1323 62.0155 74.5215 65.2389 71.0439C67.2435 68.8814 67.536 68.3346 66.7699 68.1854C64.6421 67.7701 59.6911 74.9326 55.9782 83.7971C55.2234 85.599 55.0043 85.7621 54.0363 85.2432C53.4357 84.9212 52.4715 84.808 51.8935 84.9921C50.9769 85.2834 50.8424 85.0693 50.8424 83.32C50.8424 79.7393 48.5357 78.437 45.4393 80.269C44.3299 80.9252 43.7245 81.0218 43.311 80.6076C42.6713 79.9669 44.7177 74.9519 47.2677 70.9108C48.7114 68.6222 49.1051 67.0098 48.2196 67.0098C47.4418 67.0098 44.4097 72.0988 42.7426 76.2016C41.893 78.2932 40.49 80.8995 39.6253 81.993C38.7607 83.0866 37.7697 84.6052 37.4225 85.3677C37.0427 86.2026 36.2092 86.8707 35.3269 87.0478C32.9258 87.5285 31.9123 89.7291 31.6551 95.0162L31.4291 99.6808L28.4125 100.005C26.754 100.184 24.4323 100.541 23.2537 100.8C22.0752 101.058 19.7593 101.432 18.1078 101.631L15.1052 101.992L14.7596 100.264C14.0648 96.7837 14.3921 82.6187 15.2584 78.6522C17.9508 66.3326 24.2833 55.9135 33.6999 48.3132C36.9275 45.7081 37.3068 45.546 40.176 45.546C41.8528 45.546 45.1666 45.9152 47.5403 46.3659ZM35.6751 59.3633C32.1769 63.744 30.6095 66.4206 28.1152 72.2721C25.6205 78.1237 24.0573 84.7543 24.0573 89.486C24.0573 93.3785 24.878 94.7146 25.3301 91.5589C25.4672 90.6 25.8733 87.7625 26.2322 85.2539C27.4585 76.6802 31.4527 67.2958 36.6072 60.8776C39.4448 57.3436 40.2162 55.7413 39.08 55.7413C38.7982 55.7413 37.2661 57.3709 35.6751 59.3633ZM249.92 68.6319C248.07 69.1937 246.041 71.0036 245.671 72.4213C245.203 74.2146 246.412 74.1674 247.941 72.3328C248.754 71.3578 250.24 70.283 251.244 69.9444C254.288 68.9179 253.042 67.6832 249.92 68.6319ZM83.3354 69.601C81.9678 71.1147 82.2571 73.1929 84.1331 75.3328C85.685 77.1036 85.7606 77.3612 85.0936 78.6104C84.4593 79.7968 84.1326 79.9213 82.4713 79.6111C81.4278 79.4163 80.3328 79.2178 80.0382 79.17C79.7435 79.1223 79.5025 79.4432 79.5025 79.8826C79.5025 80.3495 80.171 80.8018 81.1096 80.9692C82.6904 81.2515 82.714 81.3046 82.5528 84.1941C82.3449 87.9267 83.2642 89.4721 85.1054 88.4853C86.2416 87.8763 86.3145 87.5704 86.0402 84.5419C85.8147 82.0515 85.955 80.8995 86.622 79.7689C87.6687 77.9938 87.6066 78.0008 90.6863 79.323C94.4068 80.9204 96.9128 81.2799 96.9128 80.2158C96.9128 79.7404 96.6166 79.3514 96.2544 79.3514C95.8923 79.3514 93.9948 78.7386 92.0368 77.989L88.4776 76.6266L88.7444 74.2586C88.9807 72.1568 88.8269 71.706 87.3784 70.2551C85.4981 68.3716 84.5799 68.223 83.3354 69.601ZM86.8405 72.5136C87.2669 74.748 86.7366 75.2481 85.3373 73.9313C83.4372 72.1433 83.6917 69.7094 85.6679 70.7686C86.1822 71.0444 86.7104 71.83 86.8405 72.5136ZM253.312 71.478C252.266 71.8241 250.891 72.4846 250.257 72.945C248.994 73.8621 247.794 76.4688 248.277 77.2501C248.829 78.1462 249.563 77.7599 249.906 76.3915C250.341 74.6535 252.556 72.9144 254.348 72.9042C256.113 72.8935 257.337 72.1417 256.857 71.3626C256.411 70.6387 255.784 70.6591 253.312 71.478ZM276.164 72.6585C277.108 74.1014 277.035 77.3762 275.897 84.6604C275.233 88.9146 274.54 89.7511 273.121 88.0115C272.216 86.9029 272.087 85.8624 272.087 79.6674C272.087 72.3725 272.374 71.3025 274.325 71.3025C274.848 71.3025 275.676 71.9126 276.164 72.6585ZM269.463 80.5764C269.781 87.0778 269.479 89.0101 268.142 89.0101C267.044 89.0101 266.306 87.015 265.182 81.0175C264.034 74.8891 264.274 73.1264 266.3 72.7894C268.655 72.3977 269.118 73.5358 269.463 80.5764ZM283.721 74.8703C284.02 75.7675 283.956 77.4009 283.549 79.2972C281.717 87.8258 280.707 89.9432 278.816 89.2167C277.95 88.884 277.891 88.3619 278.219 83.965C278.605 78.789 279.337 75.2239 280.241 74.1196C281.239 72.8999 283.207 73.3244 283.721 74.8703ZM260.536 76.7162C262.648 77.2485 262.878 77.4733 263.149 79.265C263.881 84.1051 265.127 88.6608 265.974 89.5987C267.035 90.7728 268.242 90.8849 270.202 89.9904C271.257 89.5091 271.729 89.5091 272.209 89.9904C273.091 90.8742 275.043 90.7738 275.847 89.8032C276.445 89.082 276.612 89.1131 277.282 90.0714C278.215 91.4054 280.18 91.472 281.612 90.2174C282.689 89.2751 284.409 84.8424 284.409 83.012C284.409 82.3923 284.801 82.0344 285.48 82.0344C286.758 82.0344 286.79 82.5028 285.776 86.3995C284.866 89.8992 285.115 91.3158 286.797 92.2178C288.73 93.2534 289.968 92.1717 291.906 87.755C293.326 84.5166 293.836 83.8287 294.654 84.0428C295.855 84.3573 295.865 84.5199 294.921 88.3962C294.515 90.0618 293.778 93.3565 293.282 95.7175C291.597 103.744 291.3 104.62 290.362 104.324C289.887 104.174 286.002 103.313 281.73 102.411C277.458 101.509 272.396 100.439 270.48 100.032C263.792 98.6124 258.409 97.4807 256.143 97.0182C251.105 95.9901 250.335 94.647 251.487 88.8979C253.706 77.8146 253.848 77.4009 255.669 76.6647C257.235 76.032 257.85 76.0385 260.536 76.7162ZM292.4 79.0305C293.005 79.7597 292.67 81.0003 289.669 89.1442C289.32 90.0908 288.735 90.6199 288.037 90.6199C287.035 90.6199 286.978 90.3972 287.316 87.8027C287.804 84.0584 289.225 79.1797 289.971 78.6887C290.887 78.0856 291.714 78.2015 292.4 79.0305ZM307.98 80.8887C307.98 81.1442 308.49 82.0027 309.113 82.7963C309.759 83.6189 310.393 85.439 310.586 87.0274C310.985 90.2995 311.923 90.7186 312.168 87.7335C312.348 85.5367 311.55 82.9294 310.219 81.3636C309.386 80.3838 307.98 80.086 307.98 80.8887ZM49.0371 81.7543C49.2042 82.1905 49.0499 84.4238 48.6937 86.7177C47.3164 95.5967 47.5135 99.1426 49.5615 102.308C50.7503 104.145 51.4295 103.216 50.5097 101.01C49.6767 99.0138 49.4083 91.715 50.0967 89.7865C50.3019 89.2118 50.8317 88.3195 51.2747 87.8027C52.794 86.0309 53.4191 86.6968 53.7952 90.4857C54.2388 94.9496 55.473 100.025 56.4957 101.588C56.9173 102.233 59.2813 103.772 61.7488 105.008C68.3315 108.306 69.0563 108.988 69.0563 111.885C69.0563 115.079 67.9592 121.838 67.304 122.681C66.9451 123.143 65.016 123.352 61.1268 123.352C55.3991 123.352 50.4535 122.24 47.9619 120.392C47.0073 119.684 47.0009 119.535 47.828 117.463C48.3075 116.264 48.6996 114.715 48.6996 114.023C48.6996 111.521 45.5759 108.992 40.6641 107.517C39.9275 107.295 38.2989 106.636 37.0454 106.051C35.0086 105.1 34.6754 104.674 33.911 102.041C32.7383 97.9991 33.0362 91.1704 34.4542 89.6014C35.0145 88.9811 35.6333 88.4735 35.8293 88.4735C36.0254 88.4735 36.1883 91.0695 36.1915 94.2419C36.1958 98.5035 36.424 100.445 37.0641 101.675C38.0868 103.638 40.4235 105.315 41.5394 104.886C42.1308 104.659 41.7992 104.078 40.213 102.565C38.3021 100.742 38.0611 100.208 37.7241 97.0456C37.0818 91.0185 38.8914 84.4329 41.6872 82.6246C42.9649 81.7983 42.9751 81.8063 42.6274 83.3876C41.3385 89.2596 41.1274 91.2675 41.444 94.6443C41.856 99.0326 42.696 101.731 43.7802 102.147C44.3995 102.386 44.4745 102.098 44.1622 100.691C43.2992 96.8068 43.0554 91.407 43.5858 87.9262C44.0261 85.0334 44.4825 83.8953 45.7195 82.6037C47.4375 80.8104 48.5646 80.5217 49.0371 81.7543ZM304.554 81.9421C304.404 82.1868 304.892 83.2476 305.64 84.3004C306.532 85.5566 307.03 87.0172 307.088 88.5513C307.151 90.2314 307.402 90.8881 307.98 90.8881C309.763 90.8881 309.036 85.6714 306.87 82.9117C305.726 81.4565 305.033 81.1662 304.554 81.9421ZM70.2418 83.7745C67.1824 87.4674 64.4535 98.1322 66.5679 98.1322C67.2327 98.1322 67.4492 97.6256 67.4492 96.07C67.4492 93.6623 68.939 89.0761 70.6677 86.1586C71.4589 84.8241 71.6984 83.9296 71.3566 83.5873C71.0148 83.2449 70.627 83.3098 70.2418 83.7745ZM301.679 85.8694C303.179 86.6566 303.372 88.8373 302.401 94.0481C300.435 104.6 299.489 106.111 295.335 105.331C293.299 104.947 293.081 104.031 294.068 100.01C294.359 98.8297 294.938 96.1736 295.358 94.1077C297.397 84.0541 297.17 84.6122 299.057 85.0178C299.987 85.2174 301.166 85.6006 301.679 85.8694ZM84.4133 86.1484C84.2167 86.3448 84.0559 86.1838 84.0559 85.7905C84.0559 85.3972 84.2167 85.2362 84.4133 85.4326C84.6093 85.6295 84.6093 85.9515 84.4133 86.1484ZM245.109 91.5288C243.971 92.6696 245.381 97.6465 247.338 99.3921C248.887 100.774 249.995 99.9877 248.624 98.4783C247.076 96.773 246.374 95.1787 246.374 93.3699C246.374 91.7644 245.763 90.8742 245.109 91.5288ZM241.777 94.625C241.205 96.9071 244.398 101.9 245.636 100.66C245.848 100.448 245.497 99.7162 244.858 99.0347C244.047 98.1697 243.695 97.1148 243.695 95.549C243.695 92.9954 242.348 92.3466 241.777 94.625ZM266.195 100.832C268.994 101.424 273.092 102.286 275.302 102.747C294.094 106.669 295.831 107.143 296.346 108.487C296.584 109.108 295.867 109.323 292.803 109.549C287.966 109.908 284.446 111.002 280.53 113.363C278.839 114.383 277.357 115.056 277.236 114.858C277.116 114.66 276.746 113.487 276.415 112.25C275.905 110.345 275.387 109.759 273.013 108.405C271.473 107.526 268.687 106.295 266.823 105.67C263.799 104.654 263.107 104.601 260.395 105.17C254.954 106.312 251.779 106.395 251.4 105.406C250.926 104.169 252.603 102.484 255.749 101.036C259.067 99.5091 259.865 99.4935 266.195 100.832ZM303.899 104.935C303.435 106.063 302.436 107.49 301.679 108.106C300.1 109.391 300.827 110.363 302.64 109.391C303.939 108.695 305.832 105.778 305.835 104.469C305.839 102.662 304.724 102.93 303.899 104.935ZM307.43 107.287C307.057 108.19 305.943 109.547 304.954 110.302C301.913 112.626 303 113.598 306.198 111.413C308.558 109.801 310.251 105.644 308.548 105.644C308.307 105.644 307.804 106.383 307.43 107.287ZM299.789 115.072L301.509 118.33L297.826 118.398C292.634 118.494 285.471 120.735 281.565 123.483C279.824 124.71 279.964 124.799 279.148 121.948C278.131 118.395 278.34 117.157 280.227 115.567C283.412 112.882 288.046 111.563 293.783 111.707L298.069 111.815L299.789 115.072ZM281.032 117.637C280.867 118.067 281.063 118.865 281.468 119.41C282.053 120.198 282.401 120.28 283.172 119.806C284.667 118.888 284.405 117.212 282.736 117.018C281.88 116.919 281.214 117.16 281.032 117.637ZM302.781 121.876C303.485 123.38 305.943 130.832 307.428 135.962C308.197 138.617 309.49 146.243 310.477 153.938C311.632 162.95 311.778 191.428 310.712 199.817C309.665 208.047 308.211 217.11 307.009 222.89C304.819 233.42 299.379 247.984 297.266 248.976C294.686 250.187 288.006 252.753 285.48 253.504C283.86 253.986 281.881 254.624 281.083 254.923C280.285 255.221 278.236 255.662 276.53 255.902C274.823 256.142 271.619 256.622 269.409 256.971C263.748 257.862 251.223 257.422 247.445 256.199C243.587 254.95 237.673 252.102 234.32 249.877C231.678 248.125 231.638 248.057 231.374 244.86C231.061 241.077 230.003 239.221 227.117 237.396C224.608 235.81 224.182 234.696 224.336 230.134C224.424 227.505 224.184 226.123 223.36 224.521C222.759 223.352 222.267 222.346 222.267 222.287C222.267 222.228 223.292 222.007 224.544 221.796C230.893 220.727 238.633 217.277 244.499 212.904C247.555 210.625 246.4 211.036 273.913 202.438C279.426 200.715 281.55 199.181 282.039 196.568C282.515 194.026 281.947 192.17 280.137 190.357C278.161 188.378 274.975 188.296 269.524 190.084C267.398 190.782 265.659 191.251 265.659 191.128C265.659 191.005 266.585 189.528 267.717 187.848C270.1 184.31 274.033 175.843 275.992 170.036C280.419 156.918 282.162 142.206 280.613 131.05L280.032 126.865L281.551 125.648C285.564 122.431 292.086 120.286 298.142 120.192C301.952 120.132 301.967 120.138 302.781 121.876ZM47.3871 122.228C47.6668 122.496 49.5835 123.254 51.646 123.912C54.5634 124.843 56.6741 125.109 61.1547 125.108C64.3217 125.108 66.9135 125.14 66.9135 125.18C66.9135 126.23 64.513 133.378 64.0646 133.664C62.8845 134.415 55.9509 134.07 52.1817 133.073C47.9603 131.955 42.5979 129.682 42.0365 128.772C41.5764 128.026 45.3161 121.742 46.2204 121.742C46.5825 121.742 47.1075 121.961 47.3871 122.228ZM59.9493 129.539C59.9493 131.202 61.3406 131.847 62.4746 130.711C63.6087 129.575 62.9648 128.181 61.3052 128.181C60.2118 128.181 59.9493 128.444 59.9493 129.539ZM49.5031 134.183C51.271 134.736 55.1886 135.338 58.2083 135.522C61.2281 135.705 63.6993 135.897 63.6993 135.948C63.6993 136 63.0864 138.076 62.3375 140.563C59.5947 149.668 58.8779 152.916 58.8844 156.209C58.8935 161.091 60.5643 166.44 63.5777 171.236L64.5001 172.704L58.2383 179.017C52.1109 185.193 50.9249 187.012 51.3256 189.621C51.6856 191.968 53.1186 193.765 55.4553 194.8C59.2813 196.496 60.627 195.762 69.157 187.328L76.4897 180.078L95.1386 180.461C118.3 180.937 131.076 182.164 143.117 185.07C144.772 185.469 145.662 185.97 145.662 186.502C145.662 186.952 146.399 188.252 147.3 189.392L148.938 191.463L147.702 191.758C145.533 192.275 135.807 193.639 134.266 193.643C131.717 193.648 126.054 196.604 123.448 199.29C121.94 200.845 120.145 202.074 118.738 202.516C114.515 203.84 107.912 206.343 104.849 207.779C103.174 208.565 101.564 209.207 101.272 209.207C100.016 209.207 92.0272 213.727 88.251 216.573C78.3121 224.066 67.1187 235.232 61.0224 243.735C58.8603 246.75 57.7894 246.882 51.6845 244.886C46.5552 243.209 44.1113 241.976 39.2043 238.591C29.0361 231.576 21.5314 220.104 18.3842 206.762C17.0005 200.895 16.9801 186.664 18.3472 180.504C21.5288 166.166 29.3184 148.354 39.4121 132.336L40.6828 130.319L43.4861 131.749C45.0274 132.535 47.7353 133.63 49.5031 134.183ZM379.067 146.229C378.88 146.416 379.202 147.173 379.781 147.911C381.245 149.775 381.133 150.307 378.692 153.133C377.509 154.502 376.549 156.175 376.549 156.868C376.549 157.558 377.529 159.415 378.726 160.994C380.516 163.356 380.854 164.174 380.634 165.609C380.31 167.722 381.696 168.11 382.212 166.05C382.664 164.248 382.146 162.912 379.999 160.338C378.986 159.123 378.157 157.638 378.157 157.038C378.157 156.437 379 155.01 380.032 153.867C382.127 151.545 382.498 149.12 381.072 147.082C380.22 145.862 379.668 145.627 379.067 146.229ZM370.955 154.057C369.418 156.255 369.891 158.472 372.532 161.45C373.858 162.946 374.942 164.523 374.942 164.956C374.942 165.389 375.183 165.743 375.478 165.743C376.847 165.743 375.851 162.912 373.581 160.352C371.052 157.499 370.87 156.407 372.595 154.432C373.543 153.347 373.533 152.865 372.562 152.865C372.137 152.865 371.414 153.401 370.955 154.057ZM201.27 166.422C202.154 168.278 201.797 169.428 199.468 172.221C197.339 174.772 197.228 175.412 198.685 176.733C200.198 178.104 203.48 177.963 206.096 176.414C214.097 171.675 215.237 171.134 218.204 170.668C222.139 170.05 223.806 170.487 228.826 173.455C230.964 174.72 233.883 176.199 235.313 176.745C237.767 177.68 237.897 177.828 237.639 179.386C237.489 180.293 236.844 182.424 236.206 184.121C235.148 186.937 234.906 187.207 233.434 187.207C231.333 187.207 231.672 188.493 233.826 188.695C236.922 188.986 237.803 189.362 237.803 190.394C237.803 191.423 237.497 191.543 232.809 192.353C231.358 192.603 230.626 193.063 230.297 193.929C229.376 196.356 222.885 200.184 217.505 201.473C208.176 203.708 199.939 200.779 195.96 193.813C194.132 190.612 193.213 189.954 191.993 190.969C190.367 192.32 191.017 195.43 193.683 199.057C196.267 202.574 198.312 206.703 198.844 209.482C199.407 212.418 197.22 230.754 196.183 231.793C195.514 232.463 194.992 231.833 193.029 227.988C192.2 226.365 187.953 219.173 183.592 212.005C179.23 204.838 175.661 198.748 175.661 198.472C175.661 198.197 176.176 197.058 176.807 195.942C177.437 194.827 179.392 191.302 181.15 188.11C183.312 184.188 184.585 182.398 185.079 182.588C186.24 183.034 188.698 181.916 189.764 180.456C190.325 179.687 190.852 177.81 191 176.051C191.51 169.978 193.074 166.077 195.393 165.097C195.884 164.889 197.248 164.768 198.425 164.829C200.18 164.919 200.69 165.204 201.27 166.422ZM195.954 166.542C195.183 166.966 194.158 168.143 193.677 169.158C192.598 171.436 192.595 171.645 193.635 171.645C194.092 171.645 194.718 170.922 195.026 170.038C195.424 168.893 196.072 168.304 197.275 167.991C199.005 167.542 199.604 166.127 198.161 165.899C197.719 165.829 196.726 166.118 195.954 166.542ZM333.231 168.465C334.263 169.018 338.515 177.041 338.515 178.435C338.515 178.808 339.358 179.786 340.39 180.61C341.421 181.434 342.264 182.502 342.264 182.983C342.264 183.463 342.632 184.161 343.081 184.535C343.786 185.12 343.794 185.333 343.145 186.076C341.921 187.477 341.667 189.064 342.488 190.186C342.919 190.774 343.132 191.841 342.975 192.627C342.766 193.678 343.028 194.284 344.033 195.076C345.029 195.86 345.301 196.482 345.103 197.517C344.726 199.496 346.402 200.94 349.929 201.673C353.421 202.399 353.497 202.566 353.507 209.536L353.514 214.427L351.029 214.768C345.246 215.562 339.455 214.471 335.867 211.912L334.193 210.718L334.542 206.862C334.867 203.272 334.768 202.73 333.113 198.997C331.567 195.508 331.339 194.43 331.366 190.694C331.382 188.333 331.677 185.389 332.021 184.152C332.365 182.914 332.692 180.368 332.748 178.493C332.835 175.544 332.617 174.675 331.128 172.032C330.182 170.353 329.408 168.733 329.408 168.434C329.408 167.715 331.87 167.736 333.231 168.465ZM384.727 170.868C387.562 171.228 391.013 172.7 391.013 173.55C391.013 174.813 390.046 174.926 386.947 174.023C382.976 172.866 373.196 172.882 368.824 174.051C366.32 174.721 365.565 174.758 365.239 174.229C363.502 171.415 374.323 169.549 384.727 170.868ZM370.9 178.035C377.097 179.182 386.524 178.513 390.074 176.674L391.567 175.901L391.424 189.737L391.281 203.573L389.331 204.528C386.117 206.102 378.909 206.82 373.545 206.101C371.008 205.761 368.055 205.053 366.982 204.528L365.032 203.573L364.889 189.737L364.746 175.901L366.239 176.674C367.06 177.1 369.157 177.712 370.9 178.035ZM221.062 177.591C219.803 178.325 219.865 180.829 221.184 182.509C222.239 183.852 225.748 185.776 228.322 186.423C230.249 186.908 232.135 184.968 231.65 183.001C230.726 179.259 224.05 175.847 221.062 177.591ZM363.503 182.19C363.313 184.448 363.157 189.519 363.157 193.458V200.621H360.975H358.794L359.904 199.208C361.216 197.537 361.297 196.695 360.23 195.809C359.546 195.239 359.559 194.986 360.336 193.798C361.148 192.556 361.152 192.312 360.385 190.973C359.797 189.948 359.701 189.231 360.061 188.586C360.401 187.977 360.367 187.16 359.96 186.176C359.622 185.358 359.504 184.054 359.698 183.278C359.981 182.151 359.718 181.533 358.39 180.203C357.476 179.288 356.728 178.437 356.728 178.312C356.728 178.186 358.331 178.085 360.289 178.085H363.85L363.503 182.19ZM227.222 180.127C228.032 180.607 228.696 181.188 228.696 181.42C228.696 182.017 226.655 183.987 226.036 183.987C225.008 183.987 221.731 180.631 221.731 179.579C221.731 178.625 221.961 178.545 223.74 178.879C224.846 179.086 226.412 179.648 227.222 180.127ZM357.275 181.304C358.638 183.463 358.161 183.569 346.416 183.695C343.557 183.725 343.384 182.653 346.014 181.204C348.391 179.894 356.431 179.966 357.275 181.304ZM357.299 185.616C357.881 185.927 358.336 186.735 358.336 187.457C358.336 188.703 358.183 188.75 353.38 188.989C350.655 189.124 347.639 189.41 346.679 189.624C345.557 189.874 344.652 189.779 344.146 189.358C342.637 188.104 344.65 186.253 348.425 185.421C350.568 184.949 356.289 185.074 357.299 185.616ZM213.443 186.646C213.268 186.929 213.749 187.568 214.51 188.068C216.319 189.255 217.446 191.506 217.446 193.932C217.446 196.429 218.712 196.191 218.96 193.648C219.33 189.84 214.923 184.247 213.443 186.646ZM358.275 191.258C360.297 193.15 356.361 194.719 349.593 194.719C343.177 194.719 342.956 192.464 349.229 191.011C354.122 189.878 356.881 189.953 358.275 191.258ZM212.625 191.174C212.625 191.585 213.013 192.07 213.489 192.253C214.2 192.526 214.232 192.731 213.672 193.406C212.7 194.58 213.84 195.712 215.013 194.738C215.997 193.919 216.095 191.971 215.196 191.07C214.316 190.189 212.625 190.257 212.625 191.174ZM358.603 197.134C358.603 197.817 357.923 198.56 356.728 199.18C353.133 201.045 344.859 199.423 347 197.271C347.369 196.901 349.528 196.451 351.798 196.272C357.898 195.793 358.603 195.882 358.603 197.134ZM159.814 197.035C160.686 197.673 160.717 198.038 160.141 200.815C159.783 202.545 159.669 204.866 159.88 206.122C160.371 209.028 162.991 213.802 166.018 217.306C169.205 220.993 169.059 220.639 169.502 225.758C169.873 230.054 169.847 230.214 168.868 229.689C165.47 227.867 157.807 218.296 155.24 212.665C152.898 207.53 152.491 202.104 154.236 199.276C155.898 196.581 158.027 195.726 159.814 197.035ZM175.452 202.251C177.482 205.508 180.831 210.906 182.893 214.247C184.956 217.587 186.982 220.728 187.396 221.225C188.06 222.022 187.959 222.333 186.535 223.851C185.647 224.798 184.313 226.297 183.571 227.183C178.998 232.639 173.846 238.476 173.476 238.62C172.993 238.809 172.668 237.211 171.917 230.939C171.635 228.578 171.051 223.99 170.62 220.744C170.19 217.497 169.47 212.064 169.022 208.67C168.573 205.276 168.052 201.75 167.864 200.834C167.569 199.392 167.763 198.981 169.315 197.755C170.301 196.977 171.254 196.338 171.434 196.335C171.613 196.331 173.421 198.993 175.452 202.251ZM151.624 201.243C151.303 202.229 151.096 204.108 151.164 205.419L151.287 207.802L146.465 210.619C140.002 214.394 139.373 214.884 140.064 215.6C140.466 216.017 142.182 215.263 146.065 212.964C149.056 211.193 151.605 209.744 151.731 209.744C151.856 209.744 152.452 210.89 153.056 212.292C155.52 218.014 161.701 225.906 166.96 230.045C168.21 231.029 169.233 232.011 169.233 232.227C169.233 232.443 165.376 235.229 160.661 238.418C155.947 241.607 152.09 244.549 152.09 244.956C152.09 245.363 152.271 245.695 152.492 245.695C152.713 245.694 156.871 243.038 161.733 239.791L170.572 233.888L170.977 237.431C171.613 242.993 171.926 243.199 174.842 239.978L177.327 237.236L182.52 239.256C188.218 241.472 195.358 243.039 197.932 242.638C199.499 242.394 199.646 242.535 200.948 245.514C202.799 249.75 204.752 255.285 206.201 260.398C207.398 264.621 207.398 264.641 206.338 265.496C205.752 265.968 203.325 267.864 200.945 269.708C196.253 273.343 195.655 273.992 196.359 274.679C196.613 274.927 199.097 273.332 201.878 271.134C204.659 268.936 207.18 267.219 207.479 267.319C208.322 267.601 209.306 274.2 209.695 282.184L210.048 289.428L207.055 291.842C204.228 294.122 203.29 295.598 204.668 295.598C205.006 295.598 206.332 294.737 207.614 293.684L209.946 291.77L209.921 297.575C209.907 300.767 209.606 304.857 209.251 306.664L208.607 309.948L200.705 316.514C193.719 322.32 191.648 324.574 193.301 324.574C193.574 324.574 197.009 321.899 200.934 318.63C206.223 314.224 208.118 312.916 208.253 313.579C208.656 315.555 206.132 326.881 203.412 335.306C200.857 343.218 201.284 343.071 197.255 337.43C193.45 332.103 184.848 322.811 181.817 320.754C180.781 320.052 179.997 319.207 180.074 318.877C180.151 318.548 182.324 316.541 184.902 314.418C189.003 311.042 190.595 309.013 189.146 309.013C188.901 309.013 186.35 310.964 183.476 313.348L178.25 317.684L172.268 314.733C164.138 310.722 160.307 309.872 151.829 310.2L145.139 310.458L147.275 308.884C148.451 308.019 149.412 307.13 149.412 306.91C149.412 305.739 148.39 306.111 144.782 308.599C141.553 310.825 139.721 311.633 135.063 312.887C125.071 315.576 124.031 315.863 121.019 316.755C111.312 319.629 106.12 320.349 105.641 318.885C105.535 318.56 107.324 316.999 109.618 315.415C123.624 305.745 127.524 302.537 125.21 302.59C124.649 302.604 112.86 310.687 110.573 312.628C109.39 313.632 104.007 317.062 103.614 317.062C103.384 317.062 103.32 315.489 103.475 313.567C103.691 310.863 104.162 309.398 105.557 307.092C108.108 302.872 110.831 299.707 114.141 297.114C133.184 282.195 144.989 269.075 148.72 258.682C150.412 253.965 150.6 245.272 149.141 239.256C147.927 234.255 144.789 226.861 142.274 223.074C139.949 219.574 135.667 214.483 134.481 213.809C134.001 213.537 132.403 212.44 130.93 211.373C127.362 208.786 124.388 207.709 118.739 206.955C116.153 206.61 114.221 206.164 114.447 205.963C115.103 205.38 118.22 204.376 123.662 202.995C128.529 201.759 130.72 201.623 127.79 202.739C126.352 203.287 125.974 204.065 126.875 204.623C127.149 204.793 129.853 203.711 132.883 202.219C138.283 199.558 138.518 199.497 144.839 199.102C148.385 198.88 151.493 198.867 151.746 199.074C151.999 199.281 151.944 200.257 151.624 201.243ZM166.24 200.756C167.311 207.667 167.616 209.95 167.947 213.5L168.323 217.524L166.975 215.914C165.003 213.56 162.49 209.234 161.757 206.933C161.27 205.405 161.264 204.224 161.731 201.969C162.329 199.087 162.391 199.012 164.157 199.012C165.79 199.012 165.996 199.185 166.24 200.756ZM116.734 209.173C112.114 210.589 107.242 214.042 105.128 217.395C103.007 220.761 104.019 221.607 106.464 218.51C110.585 213.288 116.185 210.315 121.939 210.293C125.951 210.277 128.149 211.193 132.616 214.74C136.615 217.914 139.795 221.74 141.733 225.707C144.705 231.793 143.009 238.897 137.069 245.235C133.673 248.858 133.659 250.61 137.051 247.556C140.137 244.777 143.333 239.791 144.419 236.062L145.286 233.085L146.238 235.883C146.762 237.422 147.597 240.675 148.093 243.113C150.741 256.116 144.241 268.632 126.69 284.33C121.585 288.895 118.211 291.287 108.903 296.94C93.9552 306.017 91.3924 308.087 90.6794 311.658C90.336 313.38 90.9762 313.894 94.3682 314.621C96.481 315.074 96.278 316.182 92.895 322.673C89.4098 329.36 89.0123 332.271 91.2767 334.539C93.3874 336.653 94.5016 336.171 108.698 327.01C112.381 324.632 116.6 322.052 118.073 321.274C122.523 318.927 132.723 314.916 134.243 314.916C134.97 314.916 137.472 320.52 138.233 323.851C139.167 327.95 139.417 338.845 138.675 343.204L138.016 347.078L133.943 350.448C127.838 355.5 126.049 356.838 119.908 360.936C110.59 367.154 103.986 370.009 95.475 371.501C89.5705 372.535 86.0755 372.544 80.3826 371.541C67.0747 369.195 56.7614 363.941 48.1639 355.128C37.1804 343.868 33.214 331.632 34.6787 313.525C35.2808 306.08 35.9092 301.539 36.8997 297.477C37.1873 296.296 37.8238 293.64 38.3134 291.574C39.0918 288.292 41.8737 280.235 43.3163 277.086C50.0228 262.443 54.7937 254.52 64.0421 242.667C68.9352 236.397 82.609 222.704 87.8059 218.871C93.1854 214.904 100.724 211.095 105.838 209.762C109.358 208.844 119.615 208.29 116.734 209.173ZM335.248 213.463C338.518 215.795 341.206 216.451 347.488 216.451C352.502 216.451 353.509 216.586 353.482 217.256C353.463 217.699 353.157 219.751 352.801 221.817L352.154 225.573L348.202 225.732C343.339 225.928 337.79 224.728 333.272 222.503C331.419 221.592 329.792 220.665 329.657 220.445C329.33 219.916 332.76 212.476 333.343 212.448C333.592 212.436 334.45 212.893 335.248 213.463ZM332.901 217.756C332.429 219.246 332.957 219.939 334.564 219.939C335.713 219.939 335.883 219.726 335.737 218.463C335.523 216.589 333.436 216.069 332.901 217.756ZM200.401 223.811C200.441 224.871 200.056 226.247 199.518 226.972C198.771 227.977 198.642 228.028 198.923 227.207C199.121 226.63 199.425 225.114 199.6 223.839C199.969 221.145 200.3 221.133 200.401 223.811ZM332.502 223.936C337.685 226.6 341.178 227.451 346.915 227.451C349.661 227.451 351.907 227.546 351.907 227.661C351.907 228.728 348.65 240.051 346.519 246.389C344.143 253.459 340.655 261.223 336.044 269.708L334.513 272.525H290.001H245.489L244.234 273.863C243.178 274.989 242.325 278.314 238.866 294.797C236.604 305.575 234.611 314.535 234.438 314.709C234.265 314.882 233.018 312.719 231.668 309.901C229.629 305.646 228.662 304.299 225.954 301.939C220.902 297.538 220.397 296.207 220.573 287.764L220.72 280.734L218.358 276.227C209.452 259.229 209.872 260.139 205.931 249.254C204.878 246.341 203.611 243.202 203.117 242.278C202.124 240.421 201.644 232.128 202.081 224.382C202.176 222.702 202.494 222.966 213.428 233.786C228.631 248.829 231.772 251.505 241.017 257.288C254.583 265.775 262.943 268.04 268.552 264.748C271.231 263.175 270.699 263.188 280.659 264.46C287.866 265.382 292.304 265.034 293.587 263.447C294.137 262.768 294.591 261.574 294.595 260.794C294.608 258.569 295.188 258.12 299.097 257.299C305.136 256.031 306.299 253.629 301.777 251.767C300.477 251.231 299.412 250.537 299.41 250.225C299.409 249.913 300.313 249.253 301.417 248.759C304.918 247.193 314.529 239.619 318.621 235.2C320.791 232.856 323.901 228.947 325.532 226.512C327.163 224.077 328.588 222.085 328.699 222.085C328.81 222.085 330.522 222.918 332.502 223.936ZM190.921 227.823L192.753 231.134L189.966 230.309C186.896 229.399 185.304 228.663 185.304 228.154C185.304 227.441 188.108 224.184 188.584 224.343C188.861 224.435 189.913 226.002 190.921 227.823ZM153.429 227.182C150.005 229.361 148.497 231.196 150.483 230.765C152.011 230.433 158.519 226.128 158.519 225.45C158.519 224.296 157.329 224.701 153.429 227.182ZM190.389 232.242C196.264 234.251 197.222 234.279 198.885 232.482L200.189 231.074L200.567 232.266C201.493 235.188 199.333 240.572 197.089 240.936C194.429 241.368 179.971 237.378 179.104 235.973C178.935 235.699 179.818 234.252 181.067 232.759C183.629 229.694 183.032 229.726 190.389 232.242ZM192.301 254.346C188.747 256.755 185.839 259.08 185.839 259.512C185.839 260.637 186.7 260.193 192.926 255.857C199.432 251.326 200.068 250.774 199.317 250.309C199.012 250.12 195.855 251.937 192.301 254.346ZM172.179 253.422C170.411 254.667 166.374 257.441 163.206 259.586C160.038 261.731 157.447 263.709 157.447 263.981C157.447 265.14 159.332 264.218 165.565 260.007C175.565 253.252 176.656 252.459 176.957 251.732C177.499 250.423 175.366 251.177 172.179 253.422ZM169.425 269.465C162.905 274.178 152.106 282.065 144.73 287.501C142.892 288.856 139.704 291.172 137.648 292.647C134.171 295.141 133.285 296.247 134.278 296.854C134.499 296.989 140.499 292.838 147.611 287.629C154.723 282.421 164.167 275.503 168.598 272.257C173.03 269.01 176.782 266.06 176.938 265.701C177.709 263.921 175.713 264.921 169.425 269.465ZM373.764 274.242C374.732 275.212 374.638 275.895 371.485 290.715C361.221 338.972 356.193 362.715 356.193 362.933C356.193 363.07 355.481 363.55 354.612 364C353.222 364.72 345.565 364.818 290.998 364.811C256.879 364.808 228.438 364.663 227.795 364.491C227.153 364.318 226.507 363.863 226.36 363.481C226.214 363.098 230.172 343.502 235.157 319.935C240.141 296.368 244.222 276.894 244.225 276.659C244.228 276.424 244.823 275.64 245.546 274.915L246.861 273.598H309.991C358.378 273.598 373.271 273.748 373.764 274.242ZM182.357 281.094C179.412 283.312 161.728 296.415 158.133 299.043C155.986 300.614 155.168 302.038 156.415 302.038C156.99 302.038 183.028 282.924 185.015 281.043C185.675 280.418 185.875 279.869 185.551 279.563C185.236 279.266 183.995 279.861 182.357 281.094ZM186.847 294.848C175.753 303.688 172.882 306.339 174.417 306.327C175.029 306.322 176.971 304.954 181.316 301.468C183.362 299.827 188.591 295.652 192.937 292.192C197.284 288.731 200.839 285.667 200.839 285.383C200.839 283.99 198.405 285.636 186.847 294.848ZM162.359 312.545C169.975 314.451 180.333 320.835 186.528 327.441C191.903 333.173 197.319 340.193 201.287 346.572C203.398 349.964 205.125 353.043 205.125 353.413C205.125 353.796 204.467 354.087 203.607 354.087C202.461 354.087 201.451 353.395 199.495 351.27C198.068 349.72 196.084 347.581 195.086 346.516C194.027 345.387 193.157 343.822 193 342.76C192.852 341.759 192.275 340.047 191.718 338.954C189.829 335.251 184.763 328.867 183.713 328.867C182.659 328.867 183.172 330.073 185.315 332.637C190.138 338.407 192.438 343.837 190.393 344.623C189.073 345.13 188.316 344.507 187.023 341.852C186.348 340.465 185.142 338.565 184.344 337.629C183.546 336.694 182.22 335.064 181.397 334.007C179.957 332.158 178.34 331.454 178.34 332.675C178.34 332.998 179.634 334.749 181.215 336.565C184.156 339.943 186.911 344.546 186.911 346.085C186.911 346.921 184.939 349.114 184.583 348.673C184.485 348.552 184.065 347.576 183.649 346.504C182.739 344.158 176.141 335.601 174.608 334.779C172.469 333.633 173.44 335.845 176.683 339.511C178.423 341.478 180.474 344.274 181.241 345.726C182.46 348.032 182.545 348.503 181.915 349.453C179.427 353.207 172.504 350.623 168.62 344.49C166.857 341.704 166.801 341.435 167.899 341.012C168.417 340.813 169.979 341.903 172.24 344.04C176.115 347.704 176.732 348.108 176.732 346.983C176.732 346.162 168.887 338.337 166.286 336.565C164.459 335.32 160.502 334.227 157.88 334.245C156.905 334.251 155.083 334.723 153.831 335.292L151.554 336.327V328.911C151.554 322.373 151.394 321.026 150.196 317.535C149.45 315.356 148.699 313.151 148.527 312.635C148.244 311.783 148.71 311.696 153.592 311.696C156.707 311.696 160.394 312.053 162.359 312.545ZM147.484 315.05C149.094 318.744 149.933 323.304 149.977 328.599C150.03 334.877 149.302 337.962 147.453 339.301C146.615 339.908 144.724 341.384 143.251 342.581L140.573 344.759L140.764 336.197C140.971 326.96 140.451 323.736 137.771 317.649C136.301 314.308 136.395 314.164 140.573 313.348C142.046 313.06 143.733 312.72 144.322 312.591C144.912 312.462 145.588 312.329 145.825 312.295C146.062 312.261 146.809 313.5 147.484 315.05ZM286.904 313.44C285.8 314.454 283.873 318.865 283.873 320.377C283.873 320.62 284.355 321.301 284.944 321.892C285.957 322.906 286.73 322.965 299.106 322.965C306.48 322.965 312.807 322.732 313.595 322.431C315.117 321.852 316.314 319.541 316.858 316.134C317.475 312.268 317.338 312.233 301.81 312.233C288.461 312.233 288.195 312.254 286.904 313.44ZM315.471 314.782C315.456 316.515 314.086 320.354 313.306 320.849C312.315 321.477 286.175 321.51 285.789 320.884C285.386 320.232 287.066 314.737 287.815 314.253C288.152 314.036 294.513 313.855 301.953 313.851C314.485 313.843 315.479 313.912 315.471 314.782ZM211.848 315.384C212.127 315.641 214.526 316.589 217.178 317.49C221.641 319.007 224.226 319.659 230.174 320.763C231.429 320.996 232.613 321.344 232.806 321.537C232.998 321.729 231.489 329.796 229.453 339.463L225.749 357.038L210.868 357.181L195.987 357.324L197.09 355.159C198.051 353.271 198.328 353.066 199.248 353.559C199.829 353.87 200.303 354.319 200.303 354.557C200.303 355.168 202.805 356.233 204.239 356.233C207.349 356.233 207.471 353.643 204.589 348.784C203.41 346.797 202.446 344.822 202.446 344.397C202.446 343.971 203.432 340.725 204.636 337.184C206.598 331.415 207.884 326.402 209.428 318.496C210.127 314.917 210.633 314.267 211.848 315.384ZM143.861 335.038C143.364 336.335 144.074 337.453 145.394 337.453C146.823 337.453 147.557 336.032 146.677 334.97C145.866 333.992 144.247 334.031 143.861 335.038ZM164.727 337.758C165.585 338.297 166.387 338.811 166.51 338.901C166.633 338.991 166.403 339.685 165.996 340.445C165.336 341.682 165.391 342.074 166.522 344.21C167.938 346.884 171.431 350.494 173.787 351.719C176.153 352.947 179.457 353.191 181.018 352.252C181.755 351.809 182.96 351.165 183.697 350.822C184.433 350.478 185.61 349.928 186.311 349.6C187.012 349.271 187.823 348.48 188.113 347.843C188.42 347.169 189.335 346.545 190.303 346.351C191.773 346.057 192.268 346.32 194.547 348.602L197.126 351.186L195.567 354.112L194.007 357.038L181.754 357.317C175.014 357.47 169.081 357.797 168.568 358.043C168.055 358.29 167.354 359.432 167.01 360.581C166.33 362.855 166.794 362.692 160.126 362.995C157.185 363.128 154.769 362.743 154.769 362.141C154.769 361.896 156.58 360.328 158.796 358.659C162.279 356.033 163.322 354.624 161.783 354.624C161.551 354.624 159.258 356.213 156.688 358.154C154.109 360.103 151.681 361.557 151.271 361.399C150.861 361.242 149.918 359.911 149.175 358.44C148.419 356.948 147.103 355.342 146.191 354.803C145.294 354.272 144.627 353.572 144.709 353.248C144.791 352.923 146.727 351.031 149.01 349.043C151.293 347.055 153.162 345.203 153.162 344.928C153.162 344.205 151.751 344.315 150.923 345.102C150.534 345.472 148.563 347.214 146.542 348.973C143.054 352.01 142.832 352.12 142.123 351.149C141.712 350.586 141.377 349.749 141.379 349.289C141.389 346.283 149.858 338.464 155.036 336.681C157.421 335.86 162.626 336.438 164.727 337.758ZM225.214 361.881V364.846L197.203 364.698C166.974 364.539 168.19 364.662 168.169 361.772C168.149 358.857 167.537 358.916 197.529 358.916H225.214V361.881ZM0.321914 364.626C-0.745741 365.695 0.626727 365.908 7.71996 365.772C17.9883 365.576 18.3467 364.602 8.22353 364.403C4.08201 364.321 0.526017 364.421 0.321914 364.626ZM387.101 364.624C386.074 365.653 387.277 365.892 393.469 365.892C398.623 365.892 400.157 365.734 399.988 365.221C399.744 364.488 387.79 363.934 387.101 364.624Z" fill="white"/>
</svg>
