<svg width="400" height="445" viewBox="0 0 400 445" fill="none" xmlns="http://www.w3.org/2000/svg">
<path fill-rule="evenodd" clip-rule="evenodd" d="M94.5021 36.674C93.6182 37.0571 90.6049 38.1566 87.8059 39.1165C64.4482 47.1295 65.8421 46.5972 65.8421 47.5051C65.8421 47.8947 67.6501 49.4647 69.8598 50.9951L73.8776 53.7773V63.5444V73.312L80.44 75.3151C84.0495 76.4167 88.0871 77.6423 89.413 78.0383C90.7388 78.4343 94.6366 79.6272 98.0747 80.6886C101.513 81.7505 104.715 82.6192 105.191 82.6192C105.977 82.6192 106.028 81.0196 105.745 65.3141C105.574 55.7965 105.332 47.3506 105.207 46.5457C105.082 45.7413 103.482 43.0245 101.651 40.509C98.1165 35.655 97.5524 35.3523 94.5021 36.674ZM101.549 43.3422L103.511 46.1872L103.768 63.6206L104.026 81.0545L102.746 80.5329C102.042 80.2464 98.9951 79.2703 95.9753 78.3646C82.5506 74.3358 79.3868 73.3603 77.6275 72.7057L75.7526 72.0075L75.6068 62.3698L75.4611 52.732L71.9909 50.3748C70.0821 49.0784 68.5206 47.8947 68.5211 47.745C68.5211 47.5952 74.9699 45.2627 82.8512 42.5615L97.1807 37.6506L98.3844 39.0736C99.0465 39.8565 100.47 41.777 101.549 43.3422ZM38.2534 67.0226C33.6839 68.1908 32.2075 68.7579 28.075 70.9328C17.2512 76.6292 7.86032 85.7889 1.6076 96.7482C-0.420571 100.303 -0.3595 100.472 3.56023 102.172C4.96324 102.78 8.09978 104.365 10.5303 105.693C15.44 108.376 15.5257 108.55 14.1093 112.986C13.1118 116.111 12.5022 131.604 13.1825 136.547L13.6255 139.766L15.4935 139.704C16.5205 139.669 20.1333 139.127 23.5216 138.5C26.9099 137.872 30.0925 137.357 30.5945 137.355C31.1602 137.353 31.9048 138.253 32.5535 139.721C33.7985 142.54 34.8265 143.276 40.1284 145.138C44.9609 146.835 47.3711 149.024 46.8343 151.226C46.5075 152.567 44.3315 156.472 36.6233 169.547C30.8795 179.291 25.7549 189.151 23.5151 194.767C22.868 196.39 21.7522 199.143 21.0359 200.883C18.5412 206.945 16.0823 217.909 15.2262 226.784C14.4902 234.416 17.3272 248.231 21.2689 256.207C22.9044 259.517 27.4638 266.163 30.242 269.286C35.9129 275.661 47.7541 282.534 54.9212 283.61C57.7085 284.029 57.7069 284.066 54.6909 288.548C44.332 303.938 36.9522 321.902 34.2271 338.361C32.8583 346.631 32.3296 359.728 33.1492 365.083C34.5345 374.136 38.5041 382.875 44.3036 389.637C47.3121 393.145 52.5159 397.767 55.1328 399.255C56.3151 399.927 54.7595 400.045 41.5121 400.282C30.2179 400.485 26.5017 400.715 26.3335 401.221C26.1588 401.748 29.6597 401.892 42.6644 401.892H59.2176L62.3466 403.495C64.0678 404.377 66.8004 405.595 68.4188 406.201C83.7415 411.944 97.0735 411.204 111.912 403.79L115.93 401.782L168.6 402.167C197.569 402.378 256.208 402.371 298.91 402.151C364.045 401.815 376.549 401.632 376.549 401.016C376.549 400.422 374.699 400.282 366.849 400.282C358.014 400.282 357.18 400.202 357.492 399.387C358.038 397.963 376.014 312.44 376.014 311.268C376.014 310.687 375.635 309.832 375.172 309.368C374.439 308.634 371.915 308.525 355.619 308.525C345.328 308.525 336.907 308.363 336.907 308.166C336.907 307.97 337.955 305.856 339.235 303.471C345.472 291.845 350.286 278.848 353.062 266.134C354.623 258.98 354.764 257.527 354.807 248.076L354.854 237.798L358.871 238.094C361.081 238.257 362.985 238.643 363.102 238.951C363.61 240.289 365.881 241.958 367.951 242.516C375.733 244.616 388.08 243.836 391.544 241.026C392.698 240.09 392.711 239.897 392.659 224.265C392.597 205.871 393.052 207.219 386.393 205.735C383.335 205.054 380.822 204.902 376.1 205.113C366.536 205.539 363.45 206.872 363.587 210.514L363.66 212.475H360.445C358.677 212.475 356.364 212.837 355.307 213.28C354.249 213.722 352.715 214.085 351.898 214.085C351.081 214.085 348.785 214.588 346.794 215.204C344.465 215.925 342.819 216.164 342.175 215.875C341.624 215.628 339.913 212.893 338.371 209.797C336.311 205.661 335.086 203.847 333.748 202.956C331.755 201.628 329.448 201.38 328.443 202.387C327.502 203.33 327.659 205.702 328.759 207.171C331.258 210.505 331.503 212.877 330.154 220.658C329.066 226.934 329.445 230.942 331.554 235.457C333.436 239.483 333.533 241.263 332.101 245.432C327.157 259.826 317.696 272.018 304.698 280.745C303.04 281.858 301.53 282.768 301.342 282.768C301.155 282.768 301.394 281.863 301.874 280.756C303.213 277.666 305.813 270.379 306.324 268.28C306.576 267.247 307.269 264.591 307.865 262.378C313.513 241.392 314.836 209.982 311.211 182.962C309.664 171.434 305.352 157.604 300.336 148.08L297.963 143.575L299.623 142.455C301.407 141.251 302.364 138.961 303.888 132.254C306.221 121.987 305.419 120.294 297.533 118.84C294.421 118.266 294.319 118.194 294.3 116.567C294.254 112.363 289.082 111.241 287.611 115.116C287.337 115.835 286.729 116.425 286.258 116.425C285.539 116.425 285.459 115.977 285.755 113.604C286.054 111.201 285.935 110.564 284.951 109.311C284.06 108.177 283.337 107.839 281.798 107.839C280.7 107.839 279.528 108.113 279.195 108.447C278.742 108.9 278.258 108.672 277.297 107.553C275.688 105.679 273.164 105.533 271.38 107.212C270.271 108.255 270.041 108.293 269.108 107.587C268.537 107.154 267.56 106.792 266.937 106.783C265.37 106.759 262.981 108.759 262.981 110.094C262.981 111.136 262.776 111.177 259.271 110.831C255.72 110.481 255.491 110.529 253.905 111.969C252.494 113.25 252.046 114.349 250.888 119.376C248.974 127.684 248.82 129.055 249.594 130.928C250.26 132.537 252.494 134.132 254.083 134.132C255.708 134.132 255.448 135.17 253.604 136.047C249.909 137.804 248.535 141.06 250.672 142.997C251.958 144.163 253.902 144.228 258.963 143.273C263.557 142.406 267.256 143.04 271.383 145.402C274.107 146.962 274.185 147.076 275.462 151.428C278.778 162.719 279.787 171.525 279.015 182.422C278.394 191.18 277.171 197.327 274.437 205.442C266.644 228.561 247.972 248.915 229.231 254.72C221.821 257.015 217.172 257.443 210.317 256.459C203.994 255.552 201.877 254.846 201.355 253.472C200.889 252.245 201.954 240 202.62 238.92C202.838 238.567 203.924 238.633 205.763 239.111C214.169 241.295 223.139 238.918 230.628 232.52C232.133 231.234 233.731 230.182 234.179 230.182C235.842 230.182 238.935 228.5 239.353 227.368C239.951 225.751 239.495 224.38 238.228 223.977C237.45 223.729 237.245 223.326 237.469 222.483C237.638 221.848 238.185 219.729 238.684 217.775L239.593 214.221L243.286 213.878C252.91 212.982 258.163 205.651 256.205 195.847C255.735 193.493 252.123 189.71 250.701 190.082C249.847 190.306 249.508 189.972 249.003 188.406C247.371 183.348 243.095 177.879 239.202 175.868C234.824 173.608 229.886 174.822 228.335 178.541C227.768 179.9 227.346 180.263 226.608 180.029C220.432 178.065 211.685 177.622 205.828 178.976C201.119 180.065 194.338 183.648 191.178 186.718C188.644 189.179 185.988 193.16 184.499 196.731C182.401 201.76 181.396 211.931 182.642 215.512C183.144 216.955 182.838 217.75 179.305 224.178C177.105 228.18 175.079 231.256 174.643 231.256C174.218 231.256 173.472 230.894 172.984 230.452C172.189 229.731 171.883 229.812 169.995 231.242C168.839 232.118 167.694 232.842 167.449 232.85C167.204 232.858 165.6 231.458 163.882 229.738C155.307 221.148 138.652 216.618 110.305 215.164C104.56 214.869 95.4927 214.626 90.1555 214.624C75.512 214.62 72.7119 213.846 67.0233 208.231C62.9048 204.167 59.9552 195.599 60.7331 189.959C61.0647 187.555 63.6457 177.746 65.0449 173.572C67.8654 165.159 70.6634 152.743 70.6634 148.643C70.6634 147.155 70.7941 145.937 70.9543 145.937C71.3978 145.937 76.967 150.131 77.3522 150.755C78.2221 152.164 79.2041 151.06 80.3039 147.433C80.9494 145.305 82.1928 142.094 83.067 140.298C86.8384 132.55 95.3261 123.278 101.483 120.181C103.536 119.148 105.38 118.076 105.579 117.798C105.778 117.52 105.577 116.587 105.132 115.724C104.189 113.899 95.1964 104.704 91.2879 101.57C88.2232 99.1114 78.9089 93.0259 75.8088 91.4564C74.6608 90.8752 71.371 88.2266 68.497 85.5705C63.1577 80.6349 58.3733 76.4833 50.3067 69.7861C45.1457 65.5008 44.6502 65.3871 38.2534 67.0226ZM50.6613 72.3558C53.8547 74.9749 56.9264 77.631 57.4878 78.2583L58.5083 79.3997H48.0219H37.5356L33.8328 81.9549C27.4065 86.3888 21.8314 93.3028 17.9422 101.66C16.8457 104.017 15.8439 106.05 15.7164 106.177C15.3618 106.532 2.10848 99.59 2.10045 99.0449C2.07955 97.6197 8.85137 88.6403 13.2982 84.1968C22.163 75.3398 32.3505 69.4496 40.9887 68.187C42.7254 67.9332 44.3058 67.696 44.5008 67.6601C44.6958 67.6241 47.468 69.7372 50.6613 72.3558ZM47.5403 82.3659C61.1697 84.9561 77.7529 93.093 90.5031 103.447C97.5974 109.207 103.351 115.169 103.337 116.743C103.334 117.011 101.745 118.074 99.8051 119.106C95.61 121.338 88.2869 128.658 84.4652 134.44C82.0492 138.095 78.6989 145.51 78.6989 147.202C78.6989 148.871 77.6093 148.57 74.0769 145.925C72.0841 144.433 67.7186 141.87 64.3759 140.229C60.552 138.352 57.9587 136.728 57.3828 135.847C56.665 134.75 56.4678 133.226 56.47 128.79C56.4726 123.903 56.6783 122.584 57.9801 119.108C59.8427 114.132 62.0155 110.522 65.2389 107.044C67.2435 104.881 67.536 104.335 66.7699 104.185C64.6421 103.77 59.6911 110.933 55.9782 119.797C55.2234 121.599 55.0043 121.762 54.0363 121.243C53.4357 120.921 52.4715 120.808 51.8935 120.992C50.9769 121.283 50.8424 121.069 50.8424 119.32C50.8424 115.739 48.5357 114.437 45.4393 116.269C44.3299 116.925 43.7245 117.022 43.311 116.608C42.6713 115.967 44.7177 110.952 47.2677 106.911C48.7114 104.622 49.1051 103.01 48.2196 103.01C47.4418 103.01 44.4097 108.099 42.7426 112.202C41.893 114.293 40.49 116.899 39.6253 117.993C38.7607 119.087 37.7697 120.605 37.4225 121.368C37.0427 122.203 36.2092 122.871 35.3269 123.048C32.9258 123.529 31.9123 125.729 31.6551 131.016L31.4291 135.681L28.4125 136.005C26.754 136.184 24.4323 136.541 23.2537 136.8C22.0752 137.058 19.7593 137.432 18.1078 137.631L15.1052 137.992L14.7596 136.264C14.0648 132.784 14.3921 118.619 15.2584 114.652C17.9508 102.333 24.2833 91.9135 33.6999 84.3132C36.9275 81.7081 37.3068 81.546 40.176 81.546C41.8528 81.546 45.1666 81.9152 47.5403 82.3659ZM35.6751 95.3633C32.1769 99.744 30.6095 102.421 28.1152 108.272C25.6205 114.124 24.0573 120.754 24.0573 125.486C24.0573 129.378 24.878 130.715 25.3301 127.559C25.4672 126.6 25.8733 123.762 26.2322 121.254C27.4585 112.68 31.4527 103.296 36.6072 96.8776C39.4448 93.3436 40.2162 91.7413 39.08 91.7413C38.7982 91.7413 37.2661 93.3709 35.6751 95.3633ZM249.92 104.632C248.07 105.194 246.041 107.004 245.671 108.421C245.203 110.215 246.412 110.167 247.941 108.333C248.754 107.358 250.24 106.283 251.244 105.944C254.288 104.918 253.042 103.683 249.92 104.632ZM83.3354 105.601C81.9678 107.115 82.2571 109.193 84.1331 111.333C85.685 113.104 85.7606 113.361 85.0936 114.61C84.4593 115.797 84.1326 115.921 82.4713 115.611C81.4278 115.416 80.3328 115.218 80.0382 115.17C79.7435 115.122 79.5025 115.443 79.5025 115.883C79.5025 116.349 80.171 116.802 81.1096 116.969C82.6904 117.251 82.714 117.305 82.5528 120.194C82.3449 123.927 83.2642 125.472 85.1054 124.485C86.2416 123.876 86.3145 123.57 86.0402 120.542C85.8147 118.052 85.955 116.899 86.622 115.769C87.6687 113.994 87.6066 114.001 90.6863 115.323C94.4068 116.92 96.9128 117.28 96.9128 116.216C96.9128 115.74 96.6166 115.351 96.2544 115.351C95.8923 115.351 93.9948 114.739 92.0368 113.989L88.4776 112.627L88.7444 110.259C88.9807 108.157 88.8269 107.706 87.3784 106.255C85.4981 104.372 84.5799 104.223 83.3354 105.601ZM86.8405 108.514C87.2669 110.748 86.7366 111.248 85.3373 109.931C83.4372 108.143 83.6917 105.709 85.6679 106.769C86.1822 107.044 86.7104 107.83 86.8405 108.514ZM253.312 107.478C252.266 107.824 250.891 108.485 250.257 108.945C248.994 109.862 247.794 112.469 248.277 113.25C248.829 114.146 249.563 113.76 249.906 112.392C250.341 110.654 252.556 108.914 254.348 108.904C256.113 108.894 257.337 108.142 256.857 107.363C256.411 106.639 255.784 106.659 253.312 107.478ZM276.164 108.658C277.108 110.101 277.035 113.376 275.897 120.66C275.233 124.915 274.54 125.751 273.121 124.011C272.216 122.903 272.087 121.862 272.087 115.667C272.087 108.372 272.374 107.302 274.325 107.302C274.848 107.302 275.676 107.913 276.164 108.658ZM269.463 116.576C269.781 123.078 269.479 125.01 268.142 125.01C267.044 125.01 266.306 123.015 265.182 117.018C264.034 110.889 264.274 109.126 266.3 108.789C268.655 108.398 269.118 109.536 269.463 116.576ZM283.721 110.87C284.02 111.767 283.956 113.401 283.549 115.297C281.717 123.826 280.707 125.943 278.816 125.217C277.95 124.884 277.891 124.362 278.219 119.965C278.605 114.789 279.337 111.224 280.241 110.12C281.239 108.9 283.207 109.324 283.721 110.87ZM260.536 112.716C262.648 113.248 262.878 113.473 263.149 115.265C263.881 120.105 265.127 124.661 265.974 125.599C267.035 126.773 268.242 126.885 270.202 125.99C271.257 125.509 271.729 125.509 272.209 125.99C273.091 126.874 275.043 126.774 275.847 125.803C276.445 125.082 276.612 125.113 277.282 126.071C278.215 127.405 280.18 127.472 281.612 126.217C282.689 125.275 284.409 120.842 284.409 119.012C284.409 118.392 284.801 118.034 285.48 118.034C286.758 118.034 286.79 118.503 285.776 122.4C284.866 125.899 285.115 127.316 286.797 128.218C288.73 129.253 289.968 128.172 291.906 123.755C293.326 120.517 293.836 119.829 294.654 120.043C295.855 120.357 295.865 120.52 294.921 124.396C294.515 126.062 293.778 129.356 293.282 131.717C291.597 139.744 291.3 140.62 290.362 140.324C289.887 140.174 286.002 139.313 281.73 138.411C277.458 137.509 272.396 136.439 270.48 136.032C263.792 134.612 258.409 133.481 256.143 133.018C251.105 131.99 250.335 130.647 251.487 124.898C253.706 113.815 253.848 113.401 255.669 112.665C257.235 112.032 257.85 112.038 260.536 112.716ZM292.4 115.031C293.005 115.76 292.67 117 289.669 125.144C289.32 126.091 288.735 126.62 288.037 126.62C287.035 126.62 286.978 126.397 287.316 123.803C287.804 120.058 289.225 115.18 289.971 114.689C290.887 114.086 291.714 114.201 292.4 115.031ZM307.98 116.889C307.98 117.144 308.49 118.003 309.113 118.796C309.759 119.619 310.393 121.439 310.586 123.027C310.985 126.299 311.923 126.719 312.168 123.734C312.348 121.537 311.55 118.929 310.219 117.364C309.386 116.384 307.98 116.086 307.98 116.889ZM49.0371 117.754C49.2042 118.191 49.0499 120.424 48.6937 122.718C47.3164 131.597 47.5135 135.143 49.5615 138.308C50.7503 140.145 51.4295 139.216 50.5097 137.01C49.6767 135.014 49.4083 127.715 50.0967 125.787C50.3019 125.212 50.8317 124.319 51.2747 123.803C52.794 122.031 53.4191 122.697 53.7952 126.486C54.2388 130.95 55.473 136.025 56.4957 137.588C56.9173 138.233 59.2813 139.772 61.7488 141.008C68.3315 144.306 69.0563 144.988 69.0563 147.885C69.0563 151.079 67.9592 157.838 67.304 158.681C66.9451 159.143 65.016 159.352 61.1268 159.352C55.3991 159.352 50.4535 158.24 47.9619 156.392C47.0073 155.684 47.0009 155.535 47.828 153.463C48.3075 152.264 48.6996 150.715 48.6996 150.023C48.6996 147.521 45.5759 144.992 40.6641 143.517C39.9275 143.295 38.2989 142.636 37.0454 142.051C35.0086 141.1 34.6754 140.674 33.911 138.041C32.7383 133.999 33.0362 127.17 34.4542 125.601C35.0145 124.981 35.6333 124.473 35.8293 124.473C36.0254 124.473 36.1883 127.07 36.1915 130.242C36.1958 134.503 36.424 136.445 37.0641 137.675C38.0868 139.638 40.4235 141.315 41.5394 140.886C42.1308 140.659 41.7992 140.078 40.213 138.565C38.3021 136.742 38.0611 136.208 37.7241 133.046C37.0818 127.019 38.8914 120.433 41.6872 118.625C42.9649 117.798 42.9751 117.806 42.6274 119.388C41.3385 125.26 41.1274 127.268 41.444 130.644C41.856 135.033 42.696 137.731 43.7802 138.147C44.3995 138.386 44.4745 138.098 44.1622 136.691C43.2992 132.807 43.0554 127.407 43.5858 123.926C44.0261 121.033 44.4825 119.895 45.7195 118.604C47.4375 116.81 48.5646 116.522 49.0371 117.754ZM304.554 117.942C304.404 118.187 304.892 119.248 305.64 120.3C306.532 121.557 307.03 123.017 307.088 124.551C307.151 126.231 307.402 126.888 307.98 126.888C309.763 126.888 309.036 121.671 306.87 118.912C305.726 117.456 305.033 117.166 304.554 117.942ZM70.2418 119.775C67.1824 123.467 64.4535 134.132 66.5679 134.132C67.2327 134.132 67.4492 133.626 67.4492 132.07C67.4492 129.662 68.939 125.076 70.6677 122.159C71.4589 120.824 71.6984 119.93 71.3566 119.587C71.0148 119.245 70.627 119.31 70.2418 119.775ZM301.679 121.869C303.179 122.657 303.372 124.837 302.401 130.048C300.435 140.6 299.489 142.111 295.335 141.331C293.299 140.947 293.081 140.031 294.068 136.01C294.359 134.83 294.938 132.174 295.358 130.108C297.397 120.054 297.17 120.612 299.057 121.018C299.987 121.217 301.166 121.601 301.679 121.869ZM84.4133 122.148C84.2167 122.345 84.0559 122.184 84.0559 121.791C84.0559 121.397 84.2167 121.236 84.4133 121.433C84.6093 121.63 84.6093 121.951 84.4133 122.148ZM245.109 127.529C243.971 128.67 245.381 133.647 247.338 135.392C248.887 136.774 249.995 135.988 248.624 134.478C247.076 132.773 246.374 131.179 246.374 129.37C246.374 127.764 245.763 126.874 245.109 127.529ZM241.777 130.625C241.205 132.907 244.398 137.9 245.636 136.66C245.848 136.448 245.497 135.716 244.858 135.035C244.047 134.17 243.695 133.115 243.695 131.549C243.695 128.995 242.348 128.347 241.777 130.625ZM266.195 136.832C268.994 137.424 273.092 138.286 275.302 138.747C294.094 142.669 295.831 143.143 296.346 144.487C296.584 145.108 295.867 145.323 292.803 145.549C287.966 145.908 284.446 147.002 280.53 149.363C278.839 150.383 277.357 151.056 277.236 150.858C277.116 150.66 276.746 149.487 276.415 148.25C275.905 146.345 275.387 145.759 273.013 144.405C271.473 143.526 268.687 142.295 266.823 141.67C263.799 140.654 263.107 140.601 260.395 141.17C254.954 142.312 251.779 142.395 251.4 141.406C250.926 140.169 252.603 138.484 255.749 137.036C259.067 135.509 259.865 135.493 266.195 136.832ZM303.899 140.935C303.435 142.063 302.436 143.49 301.679 144.106C300.1 145.391 300.827 146.363 302.64 145.391C303.939 144.695 305.832 141.778 305.835 140.469C305.839 138.662 304.724 138.93 303.899 140.935ZM307.43 143.287C307.057 144.19 305.943 145.547 304.954 146.302C301.913 148.626 303 149.598 306.198 147.413C308.558 145.801 310.251 141.644 308.548 141.644C308.307 141.644 307.804 142.383 307.43 143.287ZM299.789 151.072L301.509 154.33L297.826 154.398C292.634 154.494 285.471 156.735 281.565 159.483C279.824 160.71 279.964 160.799 279.148 157.948C278.131 154.395 278.34 153.157 280.227 151.567C283.412 148.882 288.046 147.563 293.783 147.707L298.069 147.815L299.789 151.072ZM281.032 153.637C280.867 154.067 281.063 154.865 281.468 155.41C282.053 156.198 282.401 156.28 283.172 155.806C284.667 154.888 284.405 153.212 282.736 153.018C281.88 152.919 281.214 153.16 281.032 153.637ZM302.781 157.876C303.485 159.38 305.943 166.832 307.428 171.962C308.197 174.617 309.49 182.243 310.477 189.938C311.632 198.95 311.778 227.428 310.712 235.817C309.665 244.047 308.211 253.11 307.009 258.89C304.819 269.42 299.379 283.984 297.266 284.976C294.686 286.187 288.006 288.753 285.48 289.504C283.86 289.986 281.881 290.624 281.083 290.923C280.285 291.221 278.236 291.662 276.53 291.902C274.823 292.142 271.619 292.622 269.409 292.971C263.748 293.862 251.223 293.422 247.445 292.199C243.587 290.95 237.673 288.102 234.32 285.877C231.678 284.125 231.638 284.057 231.374 280.86C231.061 277.077 230.003 275.221 227.117 273.396C224.608 271.81 224.182 270.696 224.336 266.134C224.424 263.505 224.184 262.123 223.36 260.521C222.759 259.352 222.267 258.346 222.267 258.287C222.267 258.228 223.292 258.007 224.544 257.796C230.893 256.727 238.633 253.277 244.499 248.904C247.555 246.625 246.4 247.036 273.913 238.438C279.426 236.715 281.55 235.181 282.039 232.568C282.515 230.026 281.947 228.17 280.137 226.357C278.161 224.378 274.975 224.296 269.524 226.084C267.398 226.782 265.659 227.251 265.659 227.128C265.659 227.005 266.585 225.528 267.717 223.848C270.1 220.31 274.033 211.843 275.992 206.036C280.419 192.918 282.162 178.206 280.613 167.05L280.032 162.865L281.551 161.648C285.564 158.431 292.086 156.286 298.142 156.192C301.952 156.132 301.967 156.138 302.781 157.876ZM47.3871 158.228C47.6668 158.496 49.5835 159.254 51.646 159.912C54.5634 160.843 56.6741 161.109 61.1547 161.108C64.3217 161.108 66.9135 161.14 66.9135 161.18C66.9135 162.23 64.513 169.378 64.0646 169.664C62.8845 170.415 55.9509 170.07 52.1817 169.073C47.9603 167.955 42.5979 165.682 42.0365 164.772C41.5764 164.026 45.3161 157.742 46.2204 157.742C46.5825 157.742 47.1075 157.961 47.3871 158.228ZM59.9493 165.539C59.9493 167.202 61.3406 167.847 62.4746 166.711C63.6087 165.575 62.9648 164.181 61.3052 164.181C60.2118 164.181 59.9493 164.444 59.9493 165.539ZM49.5031 170.183C51.271 170.736 55.1886 171.338 58.2083 171.522C61.2281 171.705 63.6993 171.897 63.6993 171.948C63.6993 172 63.0864 174.076 62.3375 176.563C59.5947 185.668 58.8779 188.916 58.8844 192.209C58.8935 197.091 60.5643 202.44 63.5777 207.236L64.5001 208.704L58.2383 215.017C52.1109 221.193 50.9249 223.012 51.3256 225.621C51.6856 227.968 53.1186 229.765 55.4553 230.8C59.2813 232.496 60.627 231.762 69.157 223.328L76.4897 216.078L95.1386 216.461C118.3 216.937 131.076 218.164 143.117 221.07C144.772 221.469 145.662 221.97 145.662 222.502C145.662 222.952 146.399 224.252 147.3 225.392L148.938 227.463L147.702 227.758C145.533 228.275 135.807 229.639 134.266 229.643C131.717 229.648 126.054 232.604 123.448 235.29C121.94 236.845 120.145 238.074 118.738 238.516C114.515 239.84 107.912 242.343 104.849 243.779C103.174 244.565 101.564 245.207 101.272 245.207C100.016 245.207 92.0272 249.727 88.251 252.573C78.3121 260.066 67.1187 271.232 61.0224 279.735C58.8603 282.75 57.7894 282.882 51.6845 280.886C46.5552 279.209 44.1113 277.976 39.2043 274.591C29.0361 267.576 21.5314 256.104 18.3842 242.762C17.0005 236.895 16.9801 222.664 18.3472 216.504C21.5288 202.166 29.3184 184.354 39.4121 168.336L40.6828 166.319L43.4861 167.749C45.0274 168.535 47.7353 169.63 49.5031 170.183ZM379.067 182.229C378.88 182.416 379.202 183.173 379.781 183.911C381.245 185.775 381.133 186.307 378.692 189.133C377.509 190.502 376.549 192.175 376.549 192.868C376.549 193.558 377.529 195.415 378.726 196.994C380.516 199.356 380.854 200.174 380.634 201.609C380.31 203.722 381.696 204.11 382.212 202.05C382.664 200.248 382.146 198.912 379.999 196.338C378.986 195.123 378.157 193.638 378.157 193.038C378.157 192.437 379 191.01 380.032 189.867C382.127 187.545 382.498 185.12 381.072 183.082C380.22 181.862 379.668 181.627 379.067 182.229ZM370.955 190.057C369.418 192.255 369.891 194.472 372.532 197.45C373.858 198.946 374.942 200.523 374.942 200.956C374.942 201.389 375.183 201.743 375.478 201.743C376.847 201.743 375.851 198.912 373.581 196.352C371.052 193.499 370.87 192.407 372.595 190.432C373.543 189.347 373.533 188.865 372.562 188.865C372.137 188.865 371.414 189.401 370.955 190.057ZM201.27 202.422C202.154 204.278 201.797 205.428 199.468 208.221C197.339 210.772 197.228 211.412 198.685 212.733C200.198 214.104 203.48 213.963 206.096 212.414C214.097 207.675 215.237 207.134 218.204 206.668C222.139 206.05 223.806 206.487 228.826 209.455C230.964 210.72 233.883 212.199 235.313 212.745C237.767 213.68 237.897 213.828 237.639 215.386C237.489 216.293 236.844 218.424 236.206 220.121C235.148 222.937 234.906 223.207 233.434 223.207C231.333 223.207 231.672 224.493 233.826 224.695C236.922 224.986 237.803 225.362 237.803 226.394C237.803 227.423 237.497 227.543 232.809 228.353C231.358 228.603 230.626 229.063 230.297 229.929C229.376 232.356 222.885 236.184 217.505 237.473C208.176 239.708 199.939 236.779 195.96 229.813C194.132 226.612 193.213 225.954 191.993 226.969C190.367 228.32 191.017 231.43 193.683 235.057C196.267 238.574 198.312 242.703 198.844 245.482C199.407 248.418 197.22 266.754 196.183 267.793C195.514 268.463 194.992 267.833 193.029 263.988C192.2 262.365 187.953 255.173 183.592 248.005C179.23 240.838 175.661 234.748 175.661 234.472C175.661 234.197 176.176 233.058 176.807 231.942C177.437 230.827 179.392 227.302 181.15 224.11C183.312 220.188 184.585 218.398 185.079 218.588C186.24 219.034 188.698 217.916 189.764 216.456C190.325 215.687 190.852 213.81 191 212.051C191.51 205.978 193.074 202.077 195.393 201.097C195.884 200.889 197.248 200.768 198.425 200.829C200.18 200.919 200.69 201.204 201.27 202.422ZM195.954 202.542C195.183 202.966 194.158 204.143 193.677 205.158C192.598 207.436 192.595 207.645 193.635 207.645C194.092 207.645 194.718 206.922 195.026 206.038C195.424 204.893 196.072 204.304 197.275 203.991C199.005 203.542 199.604 202.127 198.161 201.899C197.719 201.829 196.726 202.118 195.954 202.542ZM333.231 204.465C334.263 205.018 338.515 213.041 338.515 214.435C338.515 214.808 339.358 215.786 340.39 216.61C341.421 217.434 342.264 218.502 342.264 218.983C342.264 219.463 342.632 220.161 343.081 220.535C343.786 221.12 343.794 221.333 343.145 222.076C341.921 223.477 341.667 225.064 342.488 226.186C342.919 226.774 343.132 227.841 342.975 228.627C342.766 229.678 343.028 230.284 344.033 231.076C345.029 231.86 345.301 232.482 345.103 233.517C344.726 235.496 346.402 236.94 349.929 237.673C353.421 238.399 353.497 238.566 353.507 245.536L353.514 250.427L351.029 250.768C345.246 251.562 339.455 250.471 335.867 247.912L334.193 246.718L334.542 242.862C334.867 239.272 334.768 238.73 333.113 234.997C331.567 231.508 331.339 230.43 331.366 226.694C331.382 224.333 331.677 221.389 332.021 220.152C332.365 218.914 332.692 216.368 332.748 214.493C332.835 211.544 332.617 210.675 331.128 208.032C330.182 206.353 329.408 204.733 329.408 204.434C329.408 203.715 331.87 203.736 333.231 204.465ZM384.727 206.868C387.562 207.228 391.013 208.7 391.013 209.55C391.013 210.813 390.046 210.926 386.947 210.023C382.976 208.866 373.196 208.882 368.824 210.051C366.32 210.721 365.565 210.758 365.239 210.229C363.502 207.415 374.323 205.549 384.727 206.868ZM370.9 214.035C377.097 215.182 386.524 214.513 390.074 212.674L391.567 211.901L391.424 225.737L391.281 239.573L389.331 240.528C386.117 242.102 378.909 242.82 373.545 242.101C371.008 241.761 368.055 241.053 366.982 240.528L365.032 239.573L364.889 225.737L364.746 211.901L366.239 212.674C367.06 213.1 369.157 213.712 370.9 214.035ZM221.062 213.591C219.803 214.325 219.865 216.829 221.184 218.509C222.239 219.852 225.748 221.776 228.322 222.423C230.249 222.908 232.135 220.968 231.65 219.001C230.726 215.259 224.05 211.847 221.062 213.591ZM363.503 218.19C363.313 220.448 363.157 225.519 363.157 229.458V236.621H360.975H358.794L359.904 235.208C361.216 233.537 361.297 232.695 360.23 231.809C359.546 231.239 359.559 230.986 360.336 229.798C361.148 228.556 361.152 228.312 360.385 226.973C359.797 225.948 359.701 225.231 360.061 224.586C360.401 223.977 360.367 223.16 359.96 222.176C359.622 221.358 359.504 220.054 359.698 219.278C359.981 218.151 359.718 217.533 358.39 216.203C357.476 215.288 356.728 214.437 356.728 214.312C356.728 214.186 358.331 214.085 360.289 214.085H363.85L363.503 218.19ZM227.222 216.127C228.032 216.607 228.696 217.188 228.696 217.42C228.696 218.017 226.655 219.987 226.036 219.987C225.008 219.987 221.731 216.631 221.731 215.579C221.731 214.625 221.961 214.545 223.74 214.879C224.846 215.086 226.412 215.648 227.222 216.127ZM357.275 217.304C358.638 219.463 358.161 219.569 346.416 219.695C343.557 219.725 343.384 218.653 346.014 217.204C348.391 215.894 356.431 215.966 357.275 217.304ZM357.299 221.616C357.881 221.927 358.336 222.735 358.336 223.457C358.336 224.703 358.183 224.75 353.38 224.989C350.655 225.124 347.639 225.41 346.679 225.624C345.557 225.874 344.652 225.779 344.146 225.358C342.637 224.104 344.65 222.253 348.425 221.421C350.568 220.949 356.289 221.074 357.299 221.616ZM213.443 222.646C213.268 222.929 213.749 223.568 214.51 224.068C216.319 225.255 217.446 227.506 217.446 229.932C217.446 232.429 218.712 232.191 218.96 229.648C219.33 225.84 214.923 220.247 213.443 222.646ZM358.275 227.258C360.297 229.15 356.361 230.719 349.593 230.719C343.177 230.719 342.956 228.464 349.229 227.011C354.122 225.878 356.881 225.953 358.275 227.258ZM212.625 227.174C212.625 227.585 213.013 228.07 213.489 228.253C214.2 228.526 214.232 228.731 213.672 229.406C212.7 230.58 213.84 231.712 215.013 230.738C215.997 229.919 216.095 227.971 215.196 227.07C214.316 226.189 212.625 226.257 212.625 227.174ZM358.603 233.134C358.603 233.817 357.923 234.56 356.728 235.18C353.133 237.045 344.859 235.423 347 233.271C347.369 232.901 349.528 232.451 351.798 232.272C357.898 231.793 358.603 231.882 358.603 233.134ZM159.814 233.035C160.686 233.673 160.717 234.038 160.141 236.815C159.783 238.545 159.669 240.866 159.88 242.122C160.371 245.028 162.991 249.802 166.018 253.306C169.205 256.993 169.059 256.639 169.502 261.758C169.873 266.054 169.847 266.214 168.868 265.689C165.47 263.867 157.807 254.296 155.24 248.665C152.898 243.53 152.491 238.104 154.236 235.276C155.898 232.581 158.027 231.726 159.814 233.035ZM175.452 238.251C177.482 241.508 180.831 246.906 182.893 250.247C184.956 253.587 186.982 256.728 187.396 257.225C188.06 258.022 187.959 258.333 186.535 259.851C185.647 260.798 184.313 262.297 183.571 263.183C178.998 268.639 173.846 274.476 173.476 274.62C172.993 274.809 172.668 273.211 171.917 266.939C171.635 264.578 171.051 259.99 170.62 256.744C170.19 253.497 169.47 248.064 169.022 244.67C168.573 241.276 168.052 237.75 167.864 236.834C167.569 235.392 167.763 234.981 169.315 233.755C170.301 232.977 171.254 232.338 171.434 232.335C171.613 232.331 173.421 234.993 175.452 238.251ZM151.624 237.243C151.303 238.229 151.096 240.108 151.164 241.419L151.287 243.802L146.465 246.619C140.002 250.394 139.373 250.884 140.064 251.6C140.466 252.017 142.182 251.263 146.065 248.964C149.056 247.193 151.605 245.744 151.731 245.744C151.856 245.744 152.452 246.89 153.056 248.292C155.52 254.014 161.701 261.906 166.96 266.045C168.21 267.029 169.233 268.011 169.233 268.227C169.233 268.443 165.376 271.229 160.661 274.418C155.947 277.607 152.09 280.549 152.09 280.956C152.09 281.363 152.271 281.695 152.492 281.695C152.713 281.694 156.871 279.038 161.733 275.791L170.572 269.888L170.977 273.431C171.613 278.993 171.926 279.199 174.842 275.978L177.327 273.236L182.52 275.256C188.218 277.472 195.358 279.039 197.932 278.638C199.499 278.394 199.646 278.535 200.948 281.514C202.799 285.75 204.752 291.285 206.201 296.398C207.398 300.621 207.398 300.641 206.338 301.496C205.752 301.968 203.325 303.864 200.945 305.708C196.253 309.343 195.655 309.992 196.359 310.679C196.613 310.927 199.097 309.332 201.878 307.134C204.659 304.936 207.18 303.219 207.479 303.319C208.322 303.601 209.306 310.2 209.695 318.184L210.048 325.428L207.055 327.842C204.228 330.122 203.29 331.598 204.668 331.598C205.006 331.598 206.332 330.737 207.614 329.684L209.946 327.77L209.921 333.575C209.907 336.767 209.606 340.857 209.251 342.664L208.607 345.948L200.705 352.514C193.719 358.32 191.648 360.574 193.301 360.574C193.574 360.574 197.009 357.899 200.934 354.63C206.223 350.224 208.118 348.916 208.253 349.579C208.656 351.555 206.132 362.881 203.412 371.306C200.857 379.218 201.284 379.071 197.255 373.43C193.45 368.103 184.848 358.811 181.817 356.754C180.781 356.052 179.997 355.207 180.074 354.877C180.151 354.548 182.324 352.541 184.902 350.418C189.003 347.042 190.595 345.013 189.146 345.013C188.901 345.013 186.35 346.964 183.476 349.348L178.25 353.684L172.268 350.733C164.138 346.722 160.307 345.872 151.829 346.2L145.139 346.458L147.275 344.884C148.451 344.019 149.412 343.13 149.412 342.91C149.412 341.739 148.39 342.111 144.782 344.599C141.553 346.825 139.721 347.633 135.063 348.887C125.071 351.576 124.031 351.863 121.019 352.755C111.312 355.629 106.12 356.349 105.641 354.885C105.535 354.56 107.324 352.999 109.618 351.415C123.624 341.745 127.524 338.537 125.21 338.59C124.649 338.604 112.86 346.687 110.573 348.628C109.39 349.632 104.007 353.062 103.614 353.062C103.384 353.062 103.32 351.489 103.475 349.567C103.691 346.863 104.162 345.398 105.557 343.092C108.108 338.872 110.831 335.707 114.141 333.114C133.184 318.195 144.989 305.075 148.72 294.682C150.412 289.965 150.6 281.272 149.141 275.256C147.927 270.255 144.789 262.861 142.274 259.074C139.949 255.574 135.667 250.483 134.481 249.809C134.001 249.537 132.403 248.44 130.93 247.373C127.362 244.786 124.388 243.709 118.739 242.955C116.153 242.61 114.221 242.164 114.447 241.963C115.103 241.38 118.22 240.376 123.662 238.995C128.529 237.759 130.72 237.623 127.79 238.739C126.352 239.287 125.974 240.065 126.875 240.623C127.149 240.793 129.853 239.711 132.883 238.219C138.283 235.558 138.518 235.497 144.839 235.102C148.385 234.88 151.493 234.867 151.746 235.074C151.999 235.281 151.944 236.257 151.624 237.243ZM166.24 236.756C167.311 243.667 167.616 245.95 167.947 249.5L168.323 253.524L166.975 251.914C165.003 249.56 162.49 245.234 161.757 242.933C161.27 241.405 161.264 240.224 161.731 237.969C162.329 235.087 162.391 235.012 164.157 235.012C165.79 235.012 165.996 235.185 166.24 236.756ZM116.734 245.173C112.114 246.589 107.242 250.042 105.128 253.395C103.007 256.761 104.019 257.607 106.464 254.51C110.585 249.288 116.185 246.315 121.939 246.293C125.951 246.277 128.149 247.193 132.616 250.74C136.615 253.914 139.795 257.74 141.733 261.707C144.705 267.793 143.009 274.897 137.069 281.235C133.673 284.858 133.659 286.61 137.051 283.556C140.137 280.777 143.333 275.791 144.419 272.062L145.286 269.085L146.238 271.883C146.762 273.422 147.597 276.675 148.093 279.113C150.741 292.116 144.241 304.632 126.69 320.33C121.585 324.895 118.211 327.287 108.903 332.94C93.9552 342.017 91.3924 344.087 90.6794 347.658C90.336 349.38 90.9762 349.894 94.3682 350.621C96.481 351.074 96.278 352.182 92.895 358.673C89.4098 365.36 89.0123 368.271 91.2767 370.539C93.3874 372.653 94.5016 372.171 108.698 363.01C112.381 360.632 116.6 358.052 118.073 357.274C122.523 354.927 132.723 350.916 134.243 350.916C134.97 350.916 137.472 356.52 138.233 359.851C139.167 363.95 139.417 374.845 138.675 379.204L138.016 383.078L133.943 386.448C127.838 391.5 126.049 392.838 119.908 396.936C110.59 403.154 103.986 406.009 95.475 407.501C89.5705 408.535 86.0755 408.544 80.3826 407.541C67.0747 405.195 56.7614 399.941 48.1639 391.128C37.1804 379.868 33.214 367.632 34.6787 349.525C35.2808 342.08 35.9092 337.539 36.8997 333.477C37.1873 332.296 37.8238 329.64 38.3134 327.574C39.0918 324.292 41.8737 316.235 43.3163 313.086C50.0228 298.443 54.7937 290.52 64.0421 278.667C68.9352 272.397 82.609 258.704 87.8059 254.871C93.1854 250.904 100.724 247.095 105.838 245.762C109.358 244.844 119.615 244.29 116.734 245.173ZM335.248 249.463C338.518 251.795 341.206 252.451 347.488 252.451C352.502 252.451 353.509 252.586 353.482 253.256C353.463 253.699 353.157 255.751 352.801 257.817L352.154 261.573L348.202 261.732C343.339 261.928 337.79 260.728 333.272 258.503C331.419 257.592 329.792 256.665 329.657 256.445C329.33 255.916 332.76 248.476 333.343 248.448C333.592 248.436 334.45 248.893 335.248 249.463ZM332.901 253.756C332.429 255.246 332.957 255.939 334.564 255.939C335.713 255.939 335.883 255.726 335.737 254.463C335.523 252.589 333.436 252.069 332.901 253.756ZM200.401 259.811C200.441 260.871 200.056 262.247 199.518 262.972C198.771 263.977 198.642 264.028 198.923 263.207C199.121 262.63 199.425 261.114 199.6 259.839C199.969 257.145 200.3 257.133 200.401 259.811ZM332.502 259.936C337.685 262.6 341.178 263.451 346.915 263.451C349.661 263.451 351.907 263.546 351.907 263.661C351.907 264.728 348.65 276.051 346.519 282.389C344.143 289.459 340.655 297.223 336.044 305.708L334.513 308.525H290.001H245.489L244.234 309.863C243.178 310.989 242.325 314.314 238.866 330.797C236.604 341.575 234.611 350.535 234.438 350.709C234.265 350.882 233.018 348.719 231.668 345.901C229.629 341.646 228.662 340.299 225.954 337.939C220.902 333.538 220.397 332.207 220.573 323.764L220.72 316.734L218.358 312.227C209.452 295.229 209.872 296.139 205.931 285.254C204.878 282.341 203.611 279.202 203.117 278.278C202.124 276.421 201.644 268.128 202.081 260.382C202.176 258.702 202.494 258.966 213.428 269.786C228.631 284.829 231.772 287.505 241.017 293.288C254.583 301.775 262.943 304.04 268.552 300.748C271.231 299.175 270.699 299.188 280.659 300.46C287.866 301.382 292.304 301.034 293.587 299.447C294.137 298.768 294.591 297.574 294.595 296.794C294.608 294.569 295.188 294.12 299.097 293.299C305.136 292.031 306.299 289.629 301.777 287.767C300.477 287.231 299.412 286.537 299.41 286.225C299.409 285.913 300.313 285.253 301.417 284.759C304.918 283.193 314.529 275.619 318.621 271.2C320.791 268.856 323.901 264.947 325.532 262.512C327.163 260.077 328.588 258.085 328.699 258.085C328.81 258.085 330.522 258.918 332.502 259.936ZM190.921 263.823L192.753 267.134L189.966 266.309C186.896 265.399 185.304 264.663 185.304 264.154C185.304 263.441 188.108 260.184 188.584 260.343C188.861 260.435 189.913 262.002 190.921 263.823ZM153.429 263.182C150.005 265.361 148.497 267.196 150.483 266.765C152.011 266.433 158.519 262.128 158.519 261.45C158.519 260.296 157.329 260.701 153.429 263.182ZM190.389 268.242C196.264 270.251 197.222 270.279 198.885 268.482L200.189 267.074L200.567 268.266C201.493 271.188 199.333 276.572 197.089 276.936C194.429 277.368 179.971 273.378 179.104 271.973C178.935 271.699 179.818 270.252 181.067 268.759C183.629 265.694 183.032 265.726 190.389 268.242ZM192.301 290.346C188.747 292.755 185.839 295.08 185.839 295.512C185.839 296.637 186.7 296.193 192.926 291.857C199.432 287.326 200.068 286.774 199.317 286.309C199.012 286.12 195.855 287.937 192.301 290.346ZM172.179 289.422C170.411 290.667 166.374 293.441 163.206 295.586C160.038 297.731 157.447 299.709 157.447 299.981C157.447 301.14 159.332 300.218 165.565 296.007C175.565 289.252 176.656 288.459 176.957 287.732C177.499 286.423 175.366 287.177 172.179 289.422ZM169.425 305.465C162.905 310.178 152.106 318.065 144.73 323.501C142.892 324.856 139.704 327.172 137.648 328.647C134.171 331.141 133.285 332.247 134.278 332.854C134.499 332.989 140.499 328.838 147.611 323.629C154.723 318.421 164.167 311.503 168.598 308.257C173.03 305.01 176.782 302.06 176.938 301.701C177.709 299.921 175.713 300.921 169.425 305.465ZM373.764 310.242C374.732 311.212 374.638 311.895 371.485 326.715C361.221 374.972 356.193 398.715 356.193 398.933C356.193 399.07 355.481 399.55 354.612 400C353.222 400.72 345.565 400.818 290.998 400.811C256.879 400.808 228.438 400.663 227.795 400.491C227.153 400.318 226.507 399.863 226.36 399.481C226.214 399.098 230.172 379.502 235.157 355.935C240.141 332.368 244.222 312.894 244.225 312.659C244.228 312.424 244.823 311.64 245.546 310.915L246.861 309.598H309.991C358.378 309.598 373.271 309.748 373.764 310.242ZM182.357 317.094C179.412 319.312 161.728 332.415 158.133 335.043C155.986 336.614 155.168 338.038 156.415 338.038C156.99 338.038 183.028 318.924 185.015 317.043C185.675 316.418 185.875 315.869 185.551 315.563C185.236 315.266 183.995 315.861 182.357 317.094ZM186.847 330.848C175.753 339.688 172.882 342.339 174.417 342.327C175.029 342.322 176.971 340.954 181.316 337.468C183.362 335.827 188.591 331.652 192.937 328.192C197.284 324.731 200.839 321.667 200.839 321.383C200.839 319.99 198.405 321.636 186.847 330.848ZM162.359 348.545C169.975 350.451 180.333 356.835 186.528 363.441C191.903 369.173 197.319 376.193 201.287 382.572C203.398 385.964 205.125 389.043 205.125 389.413C205.125 389.796 204.467 390.087 203.607 390.087C202.461 390.087 201.451 389.395 199.495 387.27C198.068 385.72 196.084 383.581 195.086 382.516C194.027 381.387 193.157 379.822 193 378.76C192.852 377.759 192.275 376.047 191.718 374.954C189.829 371.251 184.763 364.867 183.713 364.867C182.659 364.867 183.172 366.073 185.315 368.637C190.138 374.407 192.438 379.837 190.393 380.623C189.073 381.13 188.316 380.507 187.023 377.852C186.348 376.465 185.142 374.565 184.344 373.629C183.546 372.694 182.22 371.064 181.397 370.007C179.957 368.158 178.34 367.454 178.34 368.675C178.34 368.998 179.634 370.749 181.215 372.565C184.156 375.943 186.911 380.546 186.911 382.085C186.911 382.921 184.939 385.114 184.583 384.673C184.485 384.552 184.065 383.576 183.649 382.504C182.739 380.158 176.141 371.601 174.608 370.779C172.469 369.633 173.44 371.845 176.683 375.511C178.423 377.478 180.474 380.274 181.241 381.726C182.46 384.032 182.545 384.503 181.915 385.453C179.427 389.207 172.504 386.623 168.62 380.49C166.857 377.704 166.801 377.435 167.899 377.012C168.417 376.813 169.979 377.903 172.24 380.04C176.115 383.704 176.732 384.108 176.732 382.983C176.732 382.162 168.887 374.337 166.286 372.565C164.459 371.32 160.502 370.227 157.88 370.245C156.905 370.251 155.083 370.723 153.831 371.292L151.554 372.327V364.911C151.554 358.373 151.394 357.026 150.196 353.535C149.45 351.356 148.699 349.151 148.527 348.635C148.244 347.783 148.71 347.696 153.592 347.696C156.707 347.696 160.394 348.053 162.359 348.545ZM147.484 351.05C149.094 354.744 149.933 359.304 149.977 364.599C150.03 370.877 149.302 373.962 147.453 375.301C146.615 375.908 144.724 377.384 143.251 378.581L140.573 380.759L140.764 372.197C140.971 362.96 140.451 359.736 137.771 353.649C136.301 350.308 136.395 350.164 140.573 349.348C142.046 349.06 143.733 348.72 144.322 348.591C144.912 348.462 145.588 348.329 145.825 348.295C146.062 348.261 146.809 349.5 147.484 351.05ZM286.904 349.44C285.8 350.454 283.873 354.865 283.873 356.377C283.873 356.62 284.355 357.301 284.944 357.892C285.957 358.906 286.73 358.965 299.106 358.965C306.48 358.965 312.807 358.732 313.595 358.431C315.117 357.852 316.314 355.541 316.858 352.134C317.475 348.268 317.338 348.233 301.81 348.233C288.461 348.233 288.195 348.254 286.904 349.44ZM315.471 350.782C315.456 352.515 314.086 356.354 313.306 356.849C312.315 357.477 286.175 357.51 285.789 356.884C285.386 356.232 287.066 350.737 287.815 350.253C288.152 350.036 294.513 349.855 301.953 349.851C314.485 349.843 315.479 349.912 315.471 350.782ZM211.848 351.384C212.127 351.641 214.526 352.589 217.178 353.49C221.641 355.007 224.226 355.659 230.174 356.763C231.429 356.996 232.613 357.344 232.806 357.537C232.998 357.729 231.489 365.796 229.453 375.463L225.749 393.038L210.868 393.181L195.987 393.324L197.09 391.159C198.051 389.271 198.328 389.066 199.248 389.559C199.829 389.87 200.303 390.319 200.303 390.557C200.303 391.168 202.805 392.233 204.239 392.233C207.349 392.233 207.471 389.643 204.589 384.784C203.41 382.797 202.446 380.822 202.446 380.397C202.446 379.971 203.432 376.725 204.636 373.184C206.598 367.415 207.884 362.402 209.428 354.496C210.127 350.917 210.633 350.267 211.848 351.384ZM143.861 371.038C143.364 372.335 144.074 373.453 145.394 373.453C146.823 373.453 147.557 372.032 146.677 370.97C145.866 369.992 144.247 370.031 143.861 371.038ZM164.727 373.758C165.585 374.297 166.387 374.811 166.51 374.901C166.633 374.991 166.403 375.685 165.996 376.445C165.336 377.682 165.391 378.074 166.522 380.21C167.938 382.884 171.431 386.494 173.787 387.719C176.153 388.947 179.457 389.191 181.018 388.252C181.755 387.809 182.96 387.165 183.697 386.822C184.433 386.478 185.61 385.928 186.311 385.6C187.012 385.271 187.823 384.48 188.113 383.843C188.42 383.169 189.335 382.545 190.303 382.351C191.773 382.057 192.268 382.32 194.547 384.602L197.126 387.186L195.567 390.112L194.007 393.038L181.754 393.317C175.014 393.47 169.081 393.797 168.568 394.043C168.055 394.29 167.354 395.432 167.01 396.581C166.33 398.855 166.794 398.692 160.126 398.995C157.185 399.128 154.769 398.743 154.769 398.141C154.769 397.896 156.58 396.328 158.796 394.659C162.279 392.033 163.322 390.624 161.783 390.624C161.551 390.624 159.258 392.213 156.688 394.154C154.109 396.103 151.681 397.557 151.271 397.399C150.861 397.242 149.918 395.911 149.175 394.44C148.419 392.948 147.103 391.342 146.191 390.803C145.294 390.272 144.627 389.572 144.709 389.248C144.791 388.923 146.727 387.031 149.01 385.043C151.293 383.055 153.162 381.203 153.162 380.928C153.162 380.205 151.751 380.315 150.923 381.102C150.534 381.472 148.563 383.214 146.542 384.973C143.054 388.01 142.832 388.12 142.123 387.149C141.712 386.586 141.377 385.749 141.379 385.289C141.389 382.283 149.858 374.464 155.036 372.681C157.421 371.86 162.626 372.438 164.727 373.758ZM225.214 397.881V400.846L197.203 400.698C166.974 400.539 168.19 400.662 168.169 397.772C168.149 394.857 167.537 394.916 197.529 394.916H225.214V397.881ZM0.321914 400.626C-0.745741 401.695 0.626727 401.908 7.71996 401.772C17.9883 401.576 18.3467 400.602 8.22353 400.403C4.08201 400.321 0.526017 400.421 0.321914 400.626ZM387.101 400.624C386.074 401.653 387.277 401.892 393.469 401.892C398.623 401.892 400.157 401.734 399.988 401.221C399.744 400.488 387.79 399.934 387.101 400.624Z" fill="black"/>
</svg>
