<svg width="400" height="327" viewBox="0 0 400 327" fill="none" xmlns="http://www.w3.org/2000/svg">
<path fill-rule="evenodd" clip-rule="evenodd" d="M247.046 1.36698C242.188 3.43489 239.634 6.28477 235.309 14.4654C231.448 21.7665 226.49 23.7278 209.488 24.6796C196.981 25.3797 193.253 27.166 186.146 35.8683C182.58 40.2357 180.607 42.0316 174.573 46.403C171.929 48.3187 169.423 50.3053 169.004 50.8178C165.118 55.5688 163.612 60.0933 164.117 65.4969L164.41 68.6334L160.618 70.9333C158.533 72.198 156.704 73.2327 156.554 73.2327C156.403 73.2327 154.988 74.2083 153.409 75.4012C151.829 76.5936 149.954 77.9357 149.241 78.3835C146.683 79.9894 136.736 90.2885 134.659 93.4806L132.541 96.7374L80.3122 96.9901L28.0835 97.2429L25.7731 98.3802C24.2398 99.1349 23.0912 100.178 22.3575 101.482L21.2524 103.446V190.699V277.951H13.1562H5.06009V285.533V293.115H2.53004H0V300.445V307.774H2.53004H5.06009V316.854V325.934L16.3188 326.221C22.5113 326.379 51.6003 326.619 80.9614 326.754L134.345 327L136.535 325.881C137.739 325.265 139.289 324.091 139.979 323.272L141.234 321.782L142.597 323.345C143.346 324.205 144.82 325.375 145.872 325.946C147.767 326.972 148.296 326.982 201.027 326.978L254.269 326.973L256.926 325.451C258.387 324.614 259.583 323.611 259.583 323.223C259.583 321.966 260.783 322.074 261.929 323.435C262.544 324.165 264.032 325.265 265.236 325.879L267.426 326.997L329.412 326.864L391.398 326.73L391.54 320.538L391.682 314.345H393.438H395.193V308.785V303.225H393.422H391.651V288.839V274.454L395.825 274.307L400 274.16V269.611V265.061L398.12 264.906L396.24 264.749L396.096 259.598L395.952 254.446L393.811 254.291L391.669 254.136L391.533 242.16L391.398 230.183L385.958 230.04L380.519 229.896L380.517 166.602L380.515 103.309L379.441 101.549C378.089 99.3335 377.307 98.7532 374.351 97.7751C372.33 97.1059 368.069 96.9886 345.509 96.9815L319.039 96.9725L317.02 93.5857C313.037 86.9059 305.398 78.7333 297.755 72.9774C294.354 70.4167 284.346 64.1341 283.666 64.1341C283.489 64.1341 282.496 63.6104 281.457 62.971C280.419 62.3311 277.748 61.0512 275.522 60.1272C273.295 59.2027 270.756 58.1341 269.879 57.752C269.002 57.3698 268.031 57.0574 267.722 57.0574C267.412 57.0574 266.763 56.8421 266.28 56.5787C265.797 56.3154 263.694 55.6264 261.607 55.0482C259.519 54.4704 257.128 53.7941 256.293 53.5459C255.459 53.2977 253.807 52.9429 252.625 52.7568C251.022 52.5051 250.474 52.1892 250.474 51.5149C250.474 50.236 251.55 49.5243 252.751 50.0075C254.313 50.6364 256.737 50.5555 259.741 49.774C263.969 48.6736 266.346 47.2315 268.951 44.1849C270.267 42.6463 271.721 41.3876 272.182 41.3876C274.872 41.3876 276.18 38.149 274.311 36.1125C273.475 35.2011 273.41 34.686 273.798 32.0363C274.474 27.4188 273.455 22.4034 271.361 20.0494C270.938 19.5728 270.396 18.0942 270.157 16.7638C269.799 14.7672 269.287 13.9473 267.223 12.07C265.848 10.8189 264.24 8.74846 263.65 7.4691C262.355 4.66067 260.64 2.9466 257.405 1.22898C254.241 -0.451729 251.225 -0.411291 247.046 1.36698ZM267.482 14.8657C267.944 15.5694 268.196 16.271 268.043 16.4246C267.694 16.7724 265.655 14.7803 265.655 14.0919C265.655 13.1593 266.635 13.5743 267.482 14.8657ZM268.462 28.8058C268.978 29.9477 269.923 31.225 270.563 31.6441C271.206 32.0641 271.727 32.9138 271.727 33.5406C271.727 34.6178 271.623 34.6481 269.708 34.1376C267.952 33.6695 267.508 33.7347 266.293 34.638C264.619 35.882 264.288 37.4262 265.367 38.9649C266.556 40.6608 266.344 41.0439 264.39 40.7275C262.912 40.4879 262.619 40.5915 262.619 41.3563C262.619 42.8353 265.553 43.1694 267.288 41.8881C269.106 40.545 269.064 41.0242 267.151 43.4368C266.271 44.5464 264.374 45.9814 262.724 46.7856C258.866 48.6655 252.853 48.804 249.715 47.0849C245.916 45.0033 245.907 45.4522 249.849 40.2134L253.455 35.421L255.628 36.1686C259.241 37.4121 262.113 36.3541 262.113 33.7802C262.113 32.4291 261.33 31.5344 258.752 29.9376C257.849 29.378 257.847 29.3179 258.715 28.4211C259.315 27.7999 260.672 27.3859 262.763 27.1847C264.492 27.0189 266.271 26.8481 266.716 26.8056C267.212 26.7586 267.889 27.534 268.462 28.8058ZM255.179 32.4897C254.244 33.7357 253.51 33.764 253.51 32.5539C253.51 31.8584 254.238 31.3908 255.432 31.318C255.891 31.2902 255.815 31.6415 255.179 32.4897ZM260.089 33.0473C260.089 33.1863 259.975 33.3 259.836 33.3C259.696 33.3 259.583 33.1863 259.583 33.0473C259.583 32.9083 259.696 32.7945 259.836 32.7945C259.975 32.7945 260.089 32.9083 260.089 33.0473ZM260.089 34.0582C260.089 34.1972 259.975 34.311 259.836 34.311C259.696 34.311 259.583 34.1972 259.583 34.0582C259.583 33.9192 259.696 33.8055 259.836 33.8055C259.975 33.8055 260.089 33.9192 260.089 34.0582ZM268.067 36.8383C267.72 37.3944 267.262 37.8493 267.051 37.8493C266.412 37.8493 266.62 36.436 267.299 36.162C268.512 35.6732 268.695 35.8345 268.067 36.8383ZM273.074 38.9866C272.934 39.3344 272.819 39.0498 272.819 38.3548C272.819 37.6597 272.934 37.3757 273.074 37.7229C273.214 38.0707 273.214 38.6394 273.074 38.9866ZM256.04 42.8096C256.04 43.7796 259.069 45.9991 260.769 46.2746C262.403 46.5395 262.619 46.4515 262.619 45.5204C262.619 44.7182 262.2 44.3876 260.866 44.1379C259.901 43.957 258.849 43.4919 258.527 43.1037C257.899 42.348 256.04 42.1282 256.04 42.8096ZM244.725 49.2225C245.237 50.5555 244.57 51.389 243.201 51.1277C241.974 50.8931 241.954 50.832 242.713 49.6734C243.624 48.2864 244.307 48.1327 244.725 49.2225ZM241.056 53.097C243.592 53.421 245.956 53.9068 246.308 54.1767C246.76 54.523 246.85 55.4136 246.613 57.2025C246.199 60.3137 247.042 60.1034 248.539 56.7223C249.498 54.5563 249.576 54.5043 251.391 54.805C254.622 55.3403 254.665 55.3798 254.283 57.4184C253.545 61.3444 249.865 65.9882 246.037 67.8231C243.336 69.1171 238.837 69.8384 235.582 69.4987C228.174 68.7254 220.672 62.1926 219.409 55.4146L219.056 53.5191H222.386C225.521 53.5191 225.685 53.5762 225.192 54.4967C224.904 55.0345 224.668 55.8306 224.668 56.2659C224.668 57.752 225.931 57.0584 227.371 54.7818L228.809 52.5081H232.626C234.726 52.5081 238.519 52.773 241.056 53.097ZM217.369 55.4146C217.673 56.7779 218.628 59.2345 219.723 61.4708C220.862 63.7975 225.465 67.7599 228.969 69.4295C234.887 72.2496 240.684 72.2531 246.636 69.4401C251.626 67.0821 254.738 63.3365 256.092 58.0593L256.711 55.6446L259.286 56.3912C272.66 60.2708 286.362 66.9602 296.351 74.4878L300.677 77.7471L297.967 78.9451C291.512 81.7975 284.654 89.7729 282.33 97.1291C281.696 99.1379 281.106 100.87 281.019 100.978C280.933 101.087 278.749 100.253 276.167 99.1253C271.861 97.2444 264.775 94.9627 263.251 94.9667C261.978 94.9697 262.664 96.5524 264.221 97.2065C265.693 97.8247 265.736 97.9071 264.758 98.2174C264.172 98.4029 262.977 99.3694 262.102 100.365L260.512 102.175L259.038 100.389C256.265 97.0275 255.913 96.9901 227.307 96.9901H201.79L200.775 95.7012C199.849 94.5254 199.462 94.4213 196.347 94.5123C192.631 94.6205 191.781 94.3475 191.771 93.0429C191.759 91.5032 189.78 85.8226 187.74 81.475C185.491 76.6785 181.904 71.9068 177.807 68.2593L175.048 65.8022L180.344 63.6949C184.952 61.8615 190.355 60.1287 200.127 57.3506C204.295 56.1653 213.67 54.2333 215.93 54.0943C216.775 54.0423 217.137 54.3744 217.369 55.4146ZM177.061 70.0467C179.884 72.6292 183.967 77.8897 185.42 80.8149C187.114 84.2273 189.205 90.0479 189.542 92.2872C189.844 94.3015 189.778 94.5371 188.932 94.4471C187.287 94.2727 186.833 94.4304 185.314 95.7083L183.832 96.9532L165.667 97.0983C148.036 97.2388 147.435 97.2762 145.225 98.3716C143.929 99.0136 142.561 100.183 142.051 101.085L141.156 102.669L140.023 100.967C139.4 100.031 137.918 98.7977 136.731 98.2265L134.571 97.1883L137.1 93.5903C141.713 87.0282 150.278 79.4107 158.936 74.1699C165.303 70.3161 172.784 66.7515 173.595 67.1852C174.041 67.4238 175.601 68.7112 177.061 70.0467ZM306.67 83.595C310.04 87.1101 314.827 93.2021 316 95.4676L316.81 97.0336L312.907 96.8855L309.003 96.7374L307.174 93.1991C305.107 89.2022 303.625 86.9873 300.606 83.3862C298.436 80.7972 298.465 80.5298 300.988 79.8216C302.562 79.3798 302.747 79.5021 306.67 83.595ZM299.205 84.4796C302.034 87.8086 306.641 95.4176 306.641 96.7612C306.641 96.887 301.632 96.9901 295.509 96.9901C286.631 96.9901 284.377 96.8552 284.377 96.3234C284.377 95.3428 287.877 89.828 290.101 87.3022C291.974 85.1766 295.919 81.8642 296.609 81.8385C296.796 81.8314 297.964 83.0203 299.205 84.4796ZM187.729 96.7374C187.729 96.8764 187.615 96.9901 187.476 96.9901C187.337 96.9901 187.223 96.8764 187.223 96.7374C187.223 96.5984 187.337 96.4847 187.476 96.4847C187.615 96.4847 187.729 96.5984 187.729 96.7374ZM199.199 96.8218C199.013 97.0068 198.71 97.0068 198.524 96.8218C198.339 96.6363 198.491 96.4847 198.861 96.4847C199.232 96.4847 199.384 96.6363 199.199 96.8218ZM134.575 99.3361C135.466 99.514 136.975 100.394 137.927 101.291L139.658 102.922V112.088V121.253H128.214H116.77L114.826 119.252C111.707 116.042 109.174 114.96 104.744 114.946C101.468 114.936 100.577 115.14 98.2315 116.438C96.7368 117.265 94.945 118.687 94.2497 119.597L92.9857 121.253H57.8778H22.7704V113.561C22.7704 104.677 23.3579 102.321 25.9679 100.743C26.8534 100.208 28.0329 99.6222 28.5895 99.4417C29.9071 99.0136 132.449 98.9115 134.575 99.3361ZM186.854 101.034C187.092 102.007 187.462 103.758 187.676 104.925C188.13 107.387 189.063 108.711 190.21 108.517C190.655 108.442 191.568 108.765 192.239 109.236C193.06 109.81 193.724 109.942 194.263 109.64C194.826 109.324 195.393 109.495 196.157 110.209C197.048 111.043 197.442 111.126 198.308 110.663C198.891 110.352 199.367 109.877 199.367 109.609C199.367 109.341 199.704 109.122 200.115 109.122C201.698 109.122 202.494 106.841 202.318 102.811L202.151 98.9757L228.503 99.1202L254.855 99.2648L256.619 100.609C259.098 102.498 259.583 104.623 259.583 113.596V121.238L227.324 121.372C209.583 121.446 183.226 121.392 168.754 121.253L142.441 121L142.302 113.044C142.178 105.961 142.272 104.874 143.159 103.138C144.227 101.046 145.82 99.7526 147.792 99.3775C148.467 99.2486 157.436 99.1708 167.721 99.2041L186.423 99.2648L186.854 101.034ZM190.223 100.923C190.918 103.028 190.799 105.614 190.006 105.616C189.728 105.617 189.355 104.474 189.176 103.077C188.998 101.68 188.721 100.194 188.56 99.7748C188.391 99.334 188.547 99.012 188.929 99.012C189.293 99.012 189.875 99.8719 190.223 100.923ZM193.931 101.991C194.08 103.63 194.021 105.733 193.8 106.666L193.399 108.363L193.337 106.847C193.302 106.013 192.976 103.909 192.612 102.171C192.005 99.28 192.021 99.012 192.805 99.012C193.482 99.012 193.717 99.6363 193.931 101.991ZM197.345 103.571C198.053 108.505 197.789 110.178 196.923 106.242C196.042 102.235 195.732 99.012 196.227 99.012C196.482 99.012 196.985 101.064 197.345 103.571ZM200.567 100.149C201.007 101.791 200.94 104.715 200.444 105.496C199.977 106.232 199.383 103.547 199.373 100.655C199.366 98.774 200.113 98.458 200.567 100.149ZM275.053 100.72C276.425 101.405 279.254 102.801 281.341 103.821C287.603 106.879 294.336 112.128 299.684 118.119C300.728 119.288 301.581 120.472 301.581 120.749C301.581 121.076 294.617 121.253 281.816 121.253H262.05L262.208 112.015C262.39 101.311 262.427 101.227 267.679 99.3153C269.081 98.8048 272.541 99.4639 275.053 100.72ZM318.922 100.893C320.892 104.263 324.858 117.159 324.858 120.195C324.858 121.265 324.777 121.273 314.653 121.137L304.448 121L301.37 117.278C297.779 112.935 292.864 108.63 287.12 104.795C283.295 102.243 283.046 101.967 283.257 100.533L283.482 98.9989L300.726 99.1318L317.97 99.2648L318.922 100.893ZM375.776 100.392C378.587 102.395 379.001 104.028 379.001 113.115V121.253H353.056H327.112L326.516 118.599C326.188 117.14 325.77 115.036 325.587 113.924C325.212 111.652 322.552 103.528 321.498 101.438C321.119 100.687 320.81 99.8269 320.81 99.5256C320.81 99.1374 328.587 99.0196 347.502 99.1212C374.192 99.2648 374.194 99.2648 375.776 100.392ZM32.6376 104.209C29.9046 105.743 28.7039 108.137 29.052 111.354C29.3753 114.346 31.0411 116.326 34.102 117.36C35.8846 117.962 36.4858 117.959 38.3388 117.338C40.9579 116.46 42.9976 113.98 43.3675 111.225C43.747 108.398 41.6744 104.957 38.9318 103.861C36.249 102.788 35.0492 102.855 32.6376 104.209ZM152.209 103.954C148.81 105.537 147.258 108.942 148.254 112.635C149.201 116.147 153.719 118.722 156.984 117.61C160.721 116.336 162.384 114.152 162.411 110.478C162.425 108.602 162.12 107.638 161.081 106.278C158.633 103.072 155.733 102.312 152.209 103.954ZM271.448 103.767C265.793 106.228 265.46 114.312 270.908 116.894C273.196 117.979 275.011 117.93 277.524 116.714C280.121 115.458 281.341 113.44 281.341 110.4C281.341 107.608 279.71 105.114 277.065 103.86C275.027 102.894 273.513 102.869 271.448 103.767ZM38.9677 105.919C42.5837 108.053 42.3018 113.212 38.4567 115.269C35.4738 116.864 32.4028 115.717 31.1266 112.53C30.445 110.829 30.443 110.408 31.1079 108.819C32.5804 105.298 35.8634 104.088 38.9677 105.919ZM154.344 107.984C154.355 110.859 154.379 110.907 156.62 112.407C157.866 113.241 158.885 114.106 158.886 114.329C158.888 115.077 155.422 116.188 153.985 115.9C152.135 115.529 151.176 114.757 150.405 113.015C149.164 110.213 149.889 107.388 152.221 105.943C152.965 105.482 153.744 105.099 153.953 105.091C154.162 105.084 154.338 106.386 154.344 107.984ZM108.855 116.978C111.554 117.929 114.659 120.805 115.925 123.528C117.073 125.994 117.181 130.695 116.147 133.167C115.739 134.141 114.159 136.244 112.635 137.84C109.706 140.908 108.792 142.621 108.792 145.043V146.527H104.744H100.696V145.043C100.696 142.791 99.8148 140.911 97.7801 138.818L95.9362 136.923H97.8884C99.8087 136.923 99.8254 136.906 98.9247 135.912C98.3074 135.231 97.3662 134.901 96.0375 134.901C94.2659 134.901 93.9917 134.723 93.3328 133.148C92.4974 131.151 92.3628 126.49 93.0859 124.591C93.5514 123.367 93.77 123.307 98.2725 123.168C102.048 123.051 102.973 122.873 102.973 122.264C102.973 121.668 102.134 121.474 99.0512 121.358C96.8946 121.277 95.1297 121.049 95.1297 120.853C95.1297 120.192 98.6748 117.661 100.58 116.962C103.122 116.029 106.177 116.035 108.855 116.978ZM228.343 123.219L259.595 123.275L259.463 141.346L259.33 159.417H254.522H249.715L249.58 147.159L249.444 134.901H200.931C155.584 134.901 152.395 134.958 152.084 135.767C151.696 136.776 151.771 163.802 152.168 165.861L152.435 167.251H186.275H220.114V173.314V179.376L186.085 179.506L152.056 179.636L151.922 195.02C151.848 203.481 151.971 210.587 152.195 210.811C152.528 211.144 184.219 211.296 241.221 211.237L249.426 211.228L249.571 206.3L249.715 201.371H254.522H259.33L259.46 230.071L259.591 258.771L257.836 262.017C256.123 265.186 254.941 268.964 254.32 273.25C253.841 276.559 252.345 278.528 247.563 282.146C245.129 283.988 242.661 285.902 242.08 286.399C240.645 287.624 239.668 290.271 240.023 291.971C241.533 299.212 241.544 299.507 240.381 301.906C236.979 308.927 224.807 315.415 213.789 316.081C208.126 316.423 205.444 316.078 198.102 314.061C194.201 312.989 191.884 312.666 187.982 312.647C183.431 312.626 182.668 312.76 180.392 313.982C179.001 314.73 175.585 317.516 172.802 320.174L167.742 325.005L157.369 324.857C147.349 324.713 146.937 324.666 145.294 323.495C141.964 321.123 142.188 328.523 142.188 221.106V123.285L166.856 123.154C180.424 123.081 192.777 123.054 194.307 123.092C195.838 123.131 211.154 123.188 228.343 123.219ZM91.3594 127.698C91.3457 130.131 91.5294 132.745 91.7677 133.507L92.2014 134.893L62.4192 135.023L32.6376 135.154L32.504 151.203L32.3704 167.251H81.1532C125.17 167.251 129.966 167.173 130.243 166.452C130.412 166.012 130.55 159.006 130.55 150.883C130.55 140.07 130.388 135.952 129.943 135.508C129.539 135.104 127.322 134.901 123.31 134.901H117.284L117.719 133.511C117.958 132.747 118.142 130.126 118.128 127.688L118.102 123.256L129.007 123.392L139.911 123.528V221.338C139.911 275.133 139.739 319.763 139.528 320.515C139.317 321.267 138.31 322.518 137.291 323.295L135.437 324.708L107.451 324.85L79.4662 324.993L79.3285 315.752L79.1904 306.51L76.7868 306.356L74.3833 306.202L74.3889 302.06C74.3919 299.782 74.5356 297.065 74.7082 296.022C75.0148 294.168 75.071 294.126 77.2326 294.126H79.4434V290.449V286.772L83.365 286.157C93.9324 284.499 101.719 276.887 103.311 266.654C105.514 252.497 94.8164 240.04 80.4554 240.04C71.8391 240.04 64.3512 244.325 60.082 251.698C56.0192 258.715 56.2717 268.592 60.6917 275.55L62.2168 277.951H42.4936H22.7704V200.613V123.275H57.0773H91.3847L91.3594 127.698ZM304.423 124.665C305.853 126.793 308.163 131.76 308.495 133.418L308.792 134.901H290.259C280.066 134.901 271.68 134.958 271.624 135.027C271.566 135.097 271.396 140.613 271.244 147.285L270.968 159.417H266.414H261.86L261.729 141.978C261.658 132.386 261.707 124.255 261.84 123.907C262.027 123.415 266.687 123.275 282.785 123.275H303.489L304.423 124.665ZM325.195 123.907C325.413 124.255 325.68 126.876 325.789 129.733L325.986 134.929L318.544 134.788L311.102 134.648L309.458 130.511C308.553 128.236 307.436 125.798 306.974 125.095C306.513 124.392 306.135 123.695 306.135 123.545C306.135 123.397 310.334 123.275 315.467 123.275C322.383 123.275 324.901 123.439 325.195 123.907ZM379.001 131.575V139.876L376.144 144.818C371.844 152.258 371.234 154.338 371.568 160.428C371.721 163.208 372.098 166.147 372.407 166.958C373.241 169.149 373.155 177.247 372.267 180.17C371.537 182.575 369.419 187.807 367.284 192.485C364.643 198.271 364.093 201.045 364.165 208.195C364.204 211.948 364.598 217.391 365.04 220.289C365.483 223.188 365.844 226.543 365.844 227.745V229.931H341.303H316.762V242.82V255.71H319.039H321.316V261.018V266.325H323.34H325.364V269.611V272.896H321.063H316.762V288.819V304.741H318.57C319.985 304.741 320.343 304.924 320.214 305.584C320.124 306.047 319.367 306.647 318.533 306.916C317.698 307.186 314.934 308.836 312.391 310.584C304.16 316.24 301.69 317 295.243 315.855C288.425 314.645 287.351 314.667 284.14 316.086C282.499 316.811 279.024 319.135 276.417 321.251L271.679 325.097L268.923 324.813C266.145 324.526 263.544 323.154 262.671 321.513C262.416 321.034 262.14 294.65 262.039 261.018L261.86 201.371L291.208 201.278C307.35 201.227 321.755 201.17 323.22 201.151L325.884 201.118L325.75 185.07L325.617 169.021L321.865 168.768C318.786 168.561 318.25 168.403 318.875 167.888C319.453 167.412 325.597 167.23 344.385 167.13L369.133 166.999V151.076V135.154L348.261 135.022L327.388 134.89V129.082V123.275H353.194H379.001V131.575ZM95.456 138.779C98.608 141.359 99.1777 142.7 99.1777 147.538C99.1777 152.225 99.9388 154.198 102.197 155.364C104.086 156.34 105.415 156.333 107.339 155.339C109.428 154.26 110.31 151.867 110.31 147.276C110.31 142.88 110.853 141.55 113.765 138.818L115.786 136.923H122.156H128.526V151.329V165.735H85.0095H41.4927V151.329V136.923H67.3407H93.1881L95.456 138.779ZM247.827 148.17L247.691 159.417L234.029 159.669L220.367 159.922L220.215 162.829L220.063 165.735H190.487H160.911V151.329V136.923H204.437H247.964L247.827 148.17ZM309.596 137.807C310.336 139.229 310.801 144.381 310.432 147.064L310.091 149.539L299.897 149.676C290.654 149.8 289.688 149.895 289.533 150.697C289.375 151.516 290.119 151.582 299.52 151.582C305.107 151.582 309.676 151.752 309.675 151.961C309.672 152.717 307.654 155.626 307.133 155.626C306.839 155.626 305.392 156.535 303.917 157.647L301.236 159.669H291.137C283.956 159.669 280.862 159.494 280.43 159.063C279.773 158.407 279.52 137.9 280.16 137.26C280.346 137.074 286.941 136.923 294.816 136.923C307.941 136.923 309.174 136.997 309.596 137.807ZM324.846 138.566C324.839 139.469 324.598 141.118 324.311 142.23C324.023 143.342 323.511 145.39 323.173 146.78L322.559 149.307L317.383 149.451L312.207 149.595L312.2 144.396C312.197 141.537 312.056 138.686 311.889 138.06C311.584 136.923 311.585 136.923 318.22 136.923H324.858L324.846 138.566ZM367.362 151.329V165.735H343.517H319.671L319.986 164.345C321.403 158.103 321.81 156.582 322.658 154.362L323.624 151.834L340.307 151.582C354.686 151.364 356.989 151.224 356.989 150.571C356.989 149.915 354.773 149.794 340.613 149.679L324.237 149.546L324.58 148.415C325.633 144.944 326.882 139.679 326.882 138.712C326.882 138.099 327.034 137.445 327.219 137.26C327.404 137.074 336.513 136.923 347.46 136.923H367.362V151.329ZM60.8476 144.884C52.6568 145.009 51.1069 145.151 51.1069 145.78C51.1069 146.42 52.9913 146.527 64.2631 146.527C75.62 146.527 77.4194 146.423 77.4194 145.769C77.4194 145.352 77.135 144.99 76.7868 144.966C74.1849 144.783 69.2119 144.757 60.8476 144.884ZM182.416 147.616C180.816 148.491 180.139 149.622 180.139 151.426C180.139 154.871 184.001 156.364 186.487 153.879C188.256 152.112 188.136 149.991 186.172 148.341C184.458 146.9 183.918 146.796 182.416 147.616ZM200.333 148.517C198.995 149.854 198.793 150.362 199.057 151.728C199.99 156.556 206.452 156.113 206.452 151.222C206.452 148.993 205.521 147.826 203.302 147.273C202.179 146.993 201.628 147.224 200.333 148.517ZM220.367 147.616C217.807 149.014 217.267 152.149 219.261 154.021C220.735 155.404 222.627 155.423 224.347 154.072C226.282 152.552 226.185 150.075 224.123 148.341C222.409 146.9 221.868 146.796 220.367 147.616ZM185.194 149.806C186.166 150.976 185.413 153.098 184.026 153.098C181.814 153.098 180.888 151.013 182.543 149.758C183.707 148.875 184.432 148.889 185.194 149.806ZM204.139 149.848C205.129 150.839 205.152 151.782 204.202 152.569C203.038 153.535 201.163 153.019 200.973 151.68C200.656 149.445 202.605 148.317 204.139 149.848ZM223.144 149.806C224.152 151.019 223.361 153.098 221.893 153.098C220.11 153.098 219.243 151.306 220.405 150.023C221.459 148.86 222.303 148.793 223.144 149.806ZM321.316 152.004C321.316 152.236 320.841 153.869 320.262 155.633C319.682 157.396 319.024 159.765 318.799 160.897C318.409 162.864 318.388 162.883 318.335 161.312C318.28 159.685 318.255 159.669 315.75 159.669C313.28 159.669 313.219 159.633 313.219 158.165C313.219 157.117 312.835 156.408 311.954 155.832C310.537 154.904 310.486 154.71 311.183 152.878C311.665 151.612 311.788 151.582 316.496 151.582C319.147 151.582 321.316 151.772 321.316 152.004ZM51.203 156.51C51.3619 157.333 52.631 157.395 69.3232 157.395C86.0154 157.395 87.2845 157.333 87.4434 156.51C87.6033 155.681 86.4703 155.626 69.3232 155.626C52.1761 155.626 51.0431 155.681 51.203 156.51ZM310.907 157.818C311.546 158.843 310.621 159.649 308.792 159.662C307.421 159.671 307.391 159.461 308.539 157.886C309.521 156.538 310.097 156.522 310.907 157.818ZM227.08 175.465L227.214 189.492H224.929H222.644V175.31V161.128L224.794 161.283L226.945 161.438L227.08 175.465ZM303.099 161.575C303.099 161.789 300.936 164.116 298.292 166.746C294.53 170.489 293.485 171.832 293.485 172.928C293.485 174.1 293.7 174.328 294.804 174.328C295.529 174.328 297.009 173.627 298.093 172.769C300.011 171.252 300.725 171.05 299.412 172.397C298.278 173.559 296.521 176.69 296.521 177.547C296.521 178.489 296.327 178.434 300.275 178.627C303.251 178.772 303.289 178.756 305.968 176.224C307.451 174.823 308.665 173.794 308.665 173.938C308.665 174.083 308.323 175.172 307.904 176.358C307.124 178.565 307.491 179.888 308.881 179.888C309.634 179.888 312.05 177.324 314.239 174.202C315.164 172.881 315.996 171.801 316.089 171.801C316.18 171.801 316.256 175.897 316.256 180.902V190.004L272.865 189.875L229.475 189.745L229.34 175.465L229.206 161.186H266.153C286.473 161.186 303.099 161.361 303.099 161.575ZM316.256 164.916C316.256 168.577 316.213 168.701 313.94 171.614C312.666 173.245 311.431 174.92 311.195 175.335C310.959 175.75 310.648 175.972 310.505 175.829C310.362 175.686 310.817 174.209 311.518 172.547C314.065 166.502 313.03 166.402 307.37 172.148C302.914 176.67 302.298 176.907 305.571 172.839C307.981 169.841 309.677 167.316 309.677 166.724C309.677 165.569 308.234 166.432 306.047 168.894C300.733 174.879 299.084 176.577 299.068 176.078C299.059 175.79 300.873 173.465 303.099 170.914C306.904 166.553 307.927 164.724 306.559 164.724C306.236 164.724 303.826 166.335 301.203 168.304C298.581 170.273 296.354 171.802 296.254 171.703C296.154 171.603 298.373 169.196 301.185 166.353L306.296 161.186H311.276H316.256V164.916ZM237.575 169.773C237.401 170.054 237.399 170.512 237.571 170.79C237.772 171.114 245.769 171.295 259.902 171.295C280.6 171.295 281.911 171.242 281.751 170.411C281.592 169.587 280.077 169.517 259.735 169.394C245.423 169.308 237.782 169.439 237.575 169.773ZM32.3846 195.305V211.228H81.1603C125.17 211.228 129.966 211.15 130.243 210.428C130.642 209.39 130.631 182.011 130.231 180.52L129.926 179.383H81.1552H32.3846V195.305ZM237.445 181.026C237.606 181.508 241.243 181.689 252.863 181.791C266.062 181.907 268.11 181.824 268.365 181.159C268.623 180.486 266.772 180.394 252.946 180.394C240.601 180.394 237.279 180.529 237.445 181.026ZM128.408 195.432L128.273 209.459L84.883 209.588L41.4927 209.717V195.561V181.405H85.0176H128.542L128.408 195.432ZM220.114 186.106C220.114 189.088 220.336 191.029 220.721 191.413C221.074 191.766 222.763 192.02 224.749 192.02H228.171L228.317 196.443L228.463 200.866L238.077 201.118L247.691 201.371L247.838 205.541L247.985 209.712H204.448H160.911V195.558V181.405H190.512H220.114V186.106ZM68.3669 185.635C67.704 186.432 68.0369 205.09 68.7261 205.779C68.9518 206.004 75.9524 206.128 84.2834 206.054L99.4307 205.921L99.5744 196.569C99.6539 191.426 99.5927 186.706 99.4383 186.081L99.1585 184.943H84.0496C71.8856 184.943 68.8294 185.078 68.3669 185.635ZM81.9957 188.355C81.7103 188.841 80.8202 189.992 80.0187 190.912L78.5614 192.584L76.0926 190.477C74.735 189.318 73.4077 188.167 73.1436 187.92C72.8607 187.656 74.6905 187.471 77.5889 187.471C82.1409 187.471 82.4754 187.538 81.9957 188.355ZM93.8064 188.566C93.0034 189.169 91.6478 190.311 90.7932 191.104L89.2397 192.547L87.7571 190.884C84.4741 187.202 84.292 187.471 90.0756 187.471H95.2663L93.8064 188.566ZM86.0286 191.599L87.7232 193.705L86.0058 195.137C85.0616 195.925 84.1579 196.569 83.9975 196.569C83.8371 196.569 82.9333 195.925 81.9891 195.137L80.2717 193.705L81.9663 191.599C82.8984 190.44 83.8123 189.492 83.9975 189.492C84.1827 189.492 85.0965 190.44 86.0286 191.599ZM75.2395 192.198L77.3607 193.883L75.7541 195.858C74.8706 196.944 73.8434 198.149 73.4715 198.535C73.0996 198.922 72.4433 199.775 72.0132 200.431C71.583 201.087 71.0295 201.624 70.7831 201.624C70.5366 201.624 70.3352 199.577 70.3352 197.075C70.3352 193.199 70.485 192.376 71.3473 191.514C72.6619 190.201 72.7438 190.216 75.2395 192.198ZM96.8718 193.144C97.4234 193.93 97.6597 195.464 97.6597 198.26C97.6597 202.921 97.7447 202.935 93.2812 197.486L90.3787 193.942L91.6159 192.992C93.3511 191.66 95.8831 191.733 96.8718 193.144ZM170.019 195.305C170.019 195.965 172.324 196.064 187.729 196.064C203.134 196.064 205.44 195.965 205.44 195.305C205.44 194.646 203.134 194.547 187.729 194.547C172.324 194.547 170.019 194.646 170.019 195.305ZM80.796 196.708C84.0344 199.31 83.6929 199.27 86.2214 197.342C87.5077 196.361 88.7292 195.56 88.9356 195.561C89.1416 195.563 90.9693 197.496 92.9968 199.858L96.6831 204.151H83.9762H71.2688L73.7118 201.259C79.3068 194.634 78.7006 195.024 80.796 196.708ZM152.11 224.159C151.941 224.599 151.803 231.623 151.803 239.767C151.803 251.798 151.935 254.685 152.507 255.159C153.026 255.59 163.8 255.739 193.62 255.728L234.029 255.714L231.106 257.355C227.272 259.507 224.932 261.42 223.182 263.833C222.04 265.409 221.822 266.123 222.088 267.423C222.394 268.919 222.792 269.196 227.176 270.971C229.792 272.03 232.115 272.896 232.338 272.896C232.561 272.896 233.648 271.916 234.755 270.717C236.011 269.355 238.627 267.562 241.722 265.942C247.92 262.698 249.833 261.286 251.603 258.653C252.784 256.897 253.004 256.041 253.004 253.213C253.004 249.325 251.896 244.612 250.419 242.225C249.517 240.768 249.399 239.796 249.466 234.362C249.508 230.952 249.525 227.081 249.502 225.76L249.462 223.359H200.94C157.16 223.359 152.387 223.438 152.11 224.159ZM247.944 232.194V239.007L245.594 237.518C240.195 234.097 233.484 233.505 228.515 236.011C224.099 238.237 219.475 243.857 220 246.359C220.317 247.868 220.672 248.108 225.68 250.203L230.29 252.131L232.452 249.877C234.303 247.947 234.904 247.622 236.63 247.622C240.331 247.622 241.741 250.206 239.457 252.804C238.729 253.632 236.194 253.688 199.795 253.688H160.911V239.535V225.381H204.428H247.944V232.194ZM390.133 242.82V254.194H386.338C383.302 254.194 382.543 254.345 382.543 254.952C382.543 255.584 383.555 255.71 388.615 255.71H394.687V260.259V264.809H389.404C384.675 264.809 382.81 265.244 383.705 266.138C383.844 266.277 387.282 266.387 391.346 266.385L398.735 266.38V269.638V272.896H388.868C377.752 272.896 376.578 273.341 382.416 275.337C384.294 275.98 386.8 276.85 387.982 277.27L390.133 278.034V290.613V303.191L384.818 303.334C376.772 303.551 377.932 304.463 386.464 304.629L393.675 304.769V308.783V312.796L388.023 312.939C384.583 313.026 382.302 313.293 382.193 313.623C382.094 313.92 383.84 314.984 386.073 315.987L390.133 317.811V321.638V325.466H354.206H318.28V319.944V314.421L326.725 314.371C331.371 314.343 335.264 314.228 335.378 314.114C335.492 314 335.435 313.665 335.252 313.368C335.043 313.031 332.453 312.829 328.341 312.829H321.763L321.919 310.681C322.074 308.54 322.09 308.525 326.119 306.51C328.343 305.398 330.109 304.261 330.042 303.983C329.973 303.693 327.443 303.417 324.101 303.335L318.28 303.193V288.815V274.436L326.967 274.298C333.209 274.199 335.711 273.988 335.857 273.548C336.004 273.108 334.813 272.896 331.598 272.79L327.135 272.644V269.611V266.578L336.243 266.446C345.684 266.309 346.895 266.174 346.365 265.318C346.169 265 341.69 264.809 334.442 264.809H322.834V260.259V255.71H330.424C336.833 255.71 338.014 255.592 338.014 254.952C338.014 254.304 336.58 254.194 328.147 254.194H318.28V242.82V231.447H354.206H390.133V242.82ZM170.019 234.227C170.019 234.644 170.304 234.993 170.651 235.003C171.332 235.021 222.138 235.015 222.77 234.997C222.979 234.99 223.15 234.644 223.15 234.227C223.15 233.563 219.861 233.469 196.584 233.469C173.308 233.469 170.019 233.563 170.019 234.227ZM242.252 237.26C243.713 237.924 244.908 238.572 244.908 238.7C244.908 238.828 243.713 238.463 242.252 237.888C236.222 235.519 229.561 236.914 224.346 241.638C222.523 243.288 222.212 243.456 223.086 242.315C227.857 236.086 235.333 234.115 242.252 237.26ZM246.173 239.535C246.345 239.813 246.372 240.04 246.233 240.04C246.094 240.04 245.839 239.813 245.667 239.535C245.495 239.257 245.468 239.029 245.608 239.029C245.747 239.029 246.001 239.257 246.173 239.535ZM328.123 240.584C327.934 240.889 327.99 241.35 328.248 241.607C328.523 241.882 336.33 242.02 347.154 241.942C363.146 241.827 365.591 241.709 365.591 241.051C365.591 240.394 363.133 240.275 347.029 240.161C333.95 240.067 328.365 240.192 328.123 240.584ZM89.6855 243.435C99.1585 247.887 104.086 258.43 101.438 268.582C100.33 272.832 98.357 276.159 95.2774 278.97C86.5726 286.918 73.977 286.9 65.5383 278.927C60.3957 274.068 58.4693 269.269 58.7841 262.102C58.9541 258.239 59.2476 256.924 60.5698 254.103C63.1631 248.571 66.6839 245.297 72.8106 242.719C75.2971 241.673 76.3061 241.544 80.9614 241.678C85.6987 241.814 86.6444 242.005 89.6855 243.435ZM169.801 244.532C168.96 245.891 171.34 246.071 188.767 245.963C205.384 245.861 206.703 245.789 206.861 244.969C207.021 244.139 205.88 244.084 188.555 244.084C178.357 244.084 169.954 244.285 169.801 244.532ZM347.755 246.738C347.915 247.22 350.877 247.37 360.278 247.37C369.678 247.37 372.641 247.22 372.802 246.738C372.967 246.243 370.241 246.106 360.278 246.106C350.316 246.106 347.59 246.243 347.755 246.738ZM77.7897 247.025L76.3886 247.186L76.5247 258.904L76.6603 270.622H80.4554H84.2505L84.3861 258.917L84.5217 247.211L81.856 247.038C80.3901 246.943 78.5599 246.936 77.7897 247.025ZM82.9855 258.743V269.358H80.4554H77.9254V258.743V248.128H80.4554H82.9855V258.743ZM235.016 257.149C234.752 257.385 232.486 258.869 229.981 260.448C226.423 262.69 225.841 262.945 227.321 261.612C228.363 260.673 230.526 259.195 232.128 258.327C235.129 256.7 235.85 256.407 235.016 257.149ZM221.285 271.614C218.922 272.641 217.912 274.93 218.333 278.302C218.726 281.441 220.763 284.238 222.961 284.658C225.084 285.064 227.566 284.113 228.762 282.437C229.713 281.101 229.819 280.475 229.54 277.814C229.157 274.151 228.228 272.558 225.91 271.59C223.821 270.719 223.341 270.721 221.285 271.614ZM77.6496 273.632C75.201 276.077 76.9214 280.501 80.3061 280.462C81.9244 280.444 83.0684 279.698 83.915 278.111C84.8248 276.404 84.629 275.471 83.0244 273.868C81.1992 272.045 79.3204 271.962 77.6496 273.632ZM225.963 273.126C226.867 273.803 226.796 273.838 225.069 273.569C223.683 273.353 222.721 273.554 221.388 274.34C219.597 275.396 219.587 275.396 220.134 274.375C221.134 272.509 224.247 271.842 225.963 273.126ZM82.2082 274.898C83.4571 276.276 82.8838 278.336 81.1284 278.776C79.3685 279.217 78.2178 278.437 78.0084 276.661C77.7139 274.163 80.4873 272.998 82.2082 274.898ZM65.4917 280.952C68.1326 283.236 71.1003 284.734 74.8893 285.696L77.6724 286.403L77.8221 289.759L77.9714 293.115H67.3225C53.7599 293.115 53.4791 293.485 65.0221 296.148C67.5269 296.726 70.4304 297.426 71.4738 297.704L73.3713 298.209V302.217V306.226L67.4257 306.368C58.3555 306.585 59.9595 307.496 69.7027 307.66L77.9254 307.799V316.38V324.96H42.2517H6.57812V318.68V312.4L12.67 310.021C16.1204 308.672 18.6803 307.396 18.5741 307.076C18.4481 306.697 15.6038 306.465 9.95218 306.372L1.51803 306.234V300.18V294.126H18.4693C29.433 294.126 35.4206 293.948 35.4206 293.621C35.4206 293.146 26.7714 292.959 12.0177 293.113L6.57812 293.17V286.07V278.97L34.9263 279.003L63.2749 279.036L65.4917 280.952ZM326.376 285.28C326.376 285.893 327.178 286.039 330.557 286.039H334.739L341.78 293.086L348.821 300.134L350.679 298.664L352.536 297.195L353.204 298.441C354.291 300.471 355.334 299.89 357.576 296.005C363.888 285.066 363.104 286.039 365.616 286.039C367.281 286.039 367.868 285.841 367.868 285.28C367.868 284.619 365.226 284.522 347.122 284.522C329.018 284.522 326.376 284.619 326.376 285.28ZM360.278 286.41C360.278 286.979 349.485 297.665 348.91 297.665C348.322 297.665 337.508 287.006 337.508 286.426C337.508 286.213 342.631 286.039 348.893 286.039C355.155 286.039 360.278 286.205 360.278 286.41ZM40.1012 287.176C40.2621 287.658 43.2243 287.808 52.6249 287.808C62.0256 287.808 64.9877 287.658 65.1486 287.176C65.3136 286.682 62.5877 286.544 52.6249 286.544C42.6621 286.544 39.9362 286.682 40.1012 287.176ZM14.5118 314.676C14.3231 314.865 14.1682 315.209 14.1682 315.441C14.1682 315.672 22.4987 315.862 32.6796 315.862C47.2638 315.862 51.1464 315.728 50.9804 315.23C50.8185 314.744 46.6328 314.568 32.8127 314.466C22.9364 314.392 14.7011 314.487 14.5118 314.676ZM349.377 318.93C348.574 320.228 350.44 320.424 362.337 320.294C372.928 320.178 374.7 320.05 374.7 319.4C374.7 318.75 372.914 318.623 362.211 318.507C353.509 318.412 349.618 318.541 349.377 318.93ZM40.1012 319.527C40.2631 320.012 43.6792 320.158 54.9015 320.158C66.1237 320.158 69.5403 320.012 69.7027 319.527C69.8682 319.031 66.6864 318.895 54.902 318.895C43.1175 318.895 39.9357 319.031 40.1012 319.527Z" fill="white"/>
</svg>
